<?xml version="1.0" standalone="no"?>
<!DOCTYPE svg PUBLIC "-//W3C//DTD SVG 1.1//EN" "http://www.w3.org/Graphics/SVG/1.1/DTD/svg11.dtd" >
<svg>
<metadata>
Created by FontForge 20110222 at Mon Mar  7 12:06:49 2011
 By www-data
(c) 2000, 2006 Nick Curtis. All Rights Reserved.  Distributed under non-exclusive license by 1001 Free Fonts.
</metadata>
<defs>
<font id="FontleroyBrownNF" horiz-adv-x="304" >
  <font-face 
    font-family="Fontleroy Brown NF"
    font-weight="400"
    font-stretch="normal"
    units-per-em="1000"
    panose-1="2 8 6 6 7 4 1 2 4 2"
    ascent="776"
    descent="-224"
    x-height="224"
    cap-height="582"
    bbox="-130 -300 1067 726"
    underline-thickness="50"
    underline-position="-30"
    unicode-range="U+0020-2122"
  />
    <missing-glyph />
    <glyph glyph-name="exclam" unicode="!" horiz-adv-x="167" 
d="M113 36q0 -18 -13 -30.5t-31 -12.5t-31.5 12t-13.5 31t13 32t32 13t31.5 -13t12.5 -32zM122 540q-12 12 -28 12v-415l4 -2q5 2 8 7l14 -27q-14 -13 -37 -13q-25 0 -42 16.5t-17 41.5v351q0 29 20 49.5t49 20.5q30 0 50 -20z" />
    <glyph glyph-name="quotedbl" unicode="&#x22;" horiz-adv-x="240" 
d="M24 435q14 20 21.5 38t10.5 29q-14 4 -23 16.5t-9 28.5q0 19 12.5 31.5t31.5 12.5t31.5 -13t12.5 -32q0 -23 -8 -43.5t-18.5 -37t-21.5 -29t-17 -18.5zM128 435q14 20 21.5 38t10.5 29q-14 4 -23 16.5t-9 28.5q0 19 12.5 31.5t31.5 12.5t31.5 -13t12.5 -32
q0 -23 -8 -43.5t-18.5 -37t-21.5 -29t-17 -18.5z" />
    <glyph glyph-name="numbersign" unicode="#" horiz-adv-x="547" 
d="M491 494q0 -19 -13.5 -29t-30.5 -10q-10 0 -20.5 9t-10.5 20q0 8 6 14.5t14 6.5t16 -5t13 -13q2 4 2 9q0 10 -9.5 15t-17.5 5q-20 0 -30.5 -12.5t-15.5 -30t-6 -37.5t-1 -35v-264h-19l-140 254v-30q0 -12 0.5 -24.5t0.5 -24.5v-28.5t-1 -28.5q-2 -24 -11 -47t-24 -40.5
t-35.5 -28.5t-46.5 -11q-34 0 -60.5 20t-26.5 57q0 26 17.5 43.5t43.5 17.5q22 0 35 -14t13 -35q0 -12 -6.5 -21t-20.5 -9q-12 0 -20 9.5t-8 20.5q0 9 5 15t15 6q-7 5 -15 5q-14 0 -24.5 -12.5t-10.5 -25.5q0 -26 19 -40t44 -14q23 0 40.5 10.5t29.5 28t18 38.5t6 42v167
h-48v24h89l117 -214v149q0 19 1.5 44t9 47.5t23.5 37.5t44 15q20 0 35 -13t15 -33zM521 364q0 -24 -16.5 -44.5t-42.5 -20.5t-42 20.5t-16 44.5q0 25 16 45.5t42 20.5q27 0 43 -20.5t16 -45.5zM497 364q0 10 -6.5 24t-17.5 14t-14.5 -13.5t-3.5 -23.5q0 -11 3 -24.5
t16 -13.5q11 0 17 13.5t6 23.5zM404 255l119 52v-41l-119 -52v41z" />
    <glyph glyph-name="dollar" unicode="$" horiz-adv-x="223" 
d="M199 257q0 -14 -7.5 -25.5t-18.5 -19.5t-25 -13t-26 -5v-102h-29v104q-10 0 -22 5.5t-22.5 13.5t-17.5 18.5t-7 21.5q0 14 7 24.5t23 10.5q19 0 32.5 -15.5t13.5 -33.5q0 -4 -1 -8.5t-3 -7.5q5 -1 9 -1.5t9 -0.5q8 0 18 3t10 13q0 9 -17.5 21.5t-38.5 28.5t-38.5 33.5
t-17.5 35.5q0 14 6 25t15.5 18.5t20.5 11.5t21 4v110h29v-109q10 -1 22 -4.5t22 -9.5t16.5 -15t6.5 -22q0 -14 -7 -24.5t-22 -10.5q-20 0 -31.5 14t-11.5 31v5.5t2 6.5q-2 1 -7 1q-8 0 -17.5 -2t-9.5 -13q6 -14 24.5 -26.5t38.5 -26t35.5 -29.5t15.5 -36z" />
    <glyph glyph-name="percent" unicode="%" horiz-adv-x="482" 
d="M124 173q-23 0 -41.5 9.5t-31.5 25.5t-20 36.5t-7 41.5t7.5 41t20.5 36t31.5 25.5t40.5 9.5t40.5 -9.5t31.5 -25.5t20.5 -35.5t7.5 -40.5q0 -22 -7 -42.5t-20 -36.5t-31.5 -25.5t-41.5 -9.5zM195 283q0 14 -3.5 28t-10 25.5t-15.5 18.5t-21 7q-22 0 -32 -22t-10 -55
q0 -32 10 -53.5t33 -21.5q12 0 21 6.5t15 17t9.5 23.5t3.5 26zM358 -4q-23 0 -41.5 9.5t-31.5 25.5t-20 36.5t-7 41.5t7.5 41t20.5 36t31.5 25.5t40.5 9.5t40.5 -9.5t31.5 -25.5t20.5 -35.5t7.5 -40.5q0 -22 -7 -42.5t-20 -36.5t-31.5 -25.5t-41.5 -9.5zM429 106
q0 14 -3.5 28t-10 25.5t-15.5 18.5t-21 7q-22 0 -32 -22t-10 -55q0 -32 10 -53.5t33 -21.5q12 0 21 6.5t15 17t9.5 23.5t3.5 26zM172 0h-42l173 398h44z" />
    <glyph glyph-name="ampersand" unicode="&#x26;" horiz-adv-x="601" 
d="M430 287q25 -19 38 -46t13 -59q0 -23 -7.5 -45.5t-19.5 -42.5q13 -35 13 -75t-15.5 -74.5t-41.5 -60.5t-61 -41t-75 -15q-55 0 -100.5 27.5t-71.5 75.5l25 12q20 -36 55.5 -60.5t77.5 -24.5q33 0 57.5 15.5t40.5 39.5t24 53.5t8 58.5v6q-31 -20 -66.5 -28.5t-71.5 -8.5
q-43 0 -84 13t-73 37.5t-51.5 61t-19.5 83.5q0 44 21 74.5t52.5 52.5t69 38.5t70.5 31.5q-4 7 -7.5 21.5t-6 30.5t-4 31t-1.5 23q0 23 6.5 45t19 39.5t31.5 28t45 10.5q22 0 41 -9t32.5 -24.5t21.5 -35t8 -40.5q0 -32 -13 -53t-33.5 -35.5t-46 -24.5t-50.5 -20
q7 -15 15.5 -29t17.5 -28q17 0 34 -0.5t34 -0.5h115q20 0 35.5 14.5t15.5 34.5q0 17 -8 28.5t-27 11.5q-6 0 -11.5 -2.5t-10.5 -2.5t-11.5 8t-8.5 11q10 8 20 12t22 4q28 0 46.5 -21t18.5 -48q0 -19 -10 -36q-17 -29 -41 -35.5t-52 -6.5h-32h-12zM386 63q-12 59 -43.5 115.5
t-62.5 107.5q-29 -2 -46 -22.5t-17 -48.5q0 -2 1 -6t2 -6q9 14 21 14q20 0 35.5 -16.5t15.5 -35.5q0 -13 -8.5 -21.5t-21.5 -8.5q-5 0 -11 2.5t-10 4.5q-25 13 -38.5 32t-13.5 48q0 35 22 59.5t55 32.5q-5 11 -9.5 22.5t-9.5 22.5q-5 -3 -10 -5t-11 -4q-54 -23 -85.5 -64
t-31.5 -101q0 -33 12 -63t33.5 -52.5t50.5 -35.5t63 -13q32 0 62 11.5t56 30.5zM439 127q12 27 12 56q0 45 -28 74.5t-73 29.5h-18q28 -40 56.5 -78t50.5 -82zM394 506q0 33 -19.5 55.5t-54.5 22.5t-54 -22.5t-19 -55.5q0 -28 5.5 -54.5t15.5 -52.5q20 8 42 16t41 19.5
t31 28.5t12 43z" />
    <glyph glyph-name="quotesingle" unicode="'" horiz-adv-x="136" 
d="M24 435q14 20 21.5 38t10.5 29q-14 4 -23 16.5t-9 28.5q0 19 12.5 31.5t31.5 12.5t31.5 -13t12.5 -32q0 -23 -8 -43.5t-18.5 -37t-21.5 -29t-17 -18.5z" />
    <glyph glyph-name="parenleft" unicode="(" horiz-adv-x="219" 
d="M195 -100q-50 21 -83 59.5t-52.5 86.5t-27.5 100.5t-8 101.5t7.5 101.5t27 100.5t52.5 87t84 59v-33q-32 -20 -51 -59t-29.5 -84.5t-14 -91.5t-3.5 -80q0 -36 2.5 -81.5t12.5 -90t29.5 -83t53.5 -59.5v-34v0z" />
    <glyph glyph-name="parenright" unicode=")" horiz-adv-x="219" 
d="M24 -67q34 22 53.5 60.5t29.5 83t12.5 90t2.5 81.5q0 34 -3.5 80t-14 91.5t-29.5 84.5t-51 59v33q51 -20 84 -59t52.5 -87t27 -100.5t7.5 -101.5q0 -48 -8 -101t-27.5 -101t-52.5 -87t-83 -59v33z" />
    <glyph glyph-name="asterisk" unicode="*" horiz-adv-x="212" 
d="M174 458l-53 30v-61h-29v62l-53 -30l-15 24l53 31l-53 30l15 25l53 -31v62h29v-61l53 31l14 -25l-53 -31l53 -31z" />
    <glyph glyph-name="plus" unicode="+" horiz-adv-x="412" 
d="M174 310v150h64v-150h150v-63h-150v-152h-64v152h-150v63h150z" />
    <glyph glyph-name="comma" unicode="," horiz-adv-x="136" 
d="M38 -29l17 23q-14 8 -22.5 16.5t-8.5 26.5q0 19 12.5 31.5t31.5 12.5q18 0 31 -13t13 -31q0 -11 -6 -22.5t-14.5 -22.5t-17 -21t-13.5 -17z" />
    <glyph glyph-name="hyphen" unicode="-" horiz-adv-x="184" 
d="M24 207v66h136v-66h-136z" />
    <glyph glyph-name="period" unicode="." horiz-adv-x="137" 
d="M113 36q0 -18 -13 -30.5t-31 -12.5t-31.5 12t-13.5 31t13 32t32 13t31.5 -13t12.5 -32z" />
    <glyph glyph-name="slash" unicode="/" horiz-adv-x="288" 
d="M71 -180h-47l192 843h48z" />
    <glyph glyph-name="zero" unicode="0" horiz-adv-x="361" 
d="M186 0q-39 0 -69.5 17.5t-51 46t-31 64t-10.5 70.5q0 33 10.5 68t30.5 63.5t49 47t67 18.5q37 0 66.5 -18.5t49 -47.5t30 -64t10.5 -68q0 -32 -10 -66.5t-29 -63.5t-47.5 -48t-64.5 -19zM101 197q0 -43 8 -74t21.5 -51.5t31 -30t35.5 -9.5q20 0 39.5 11t35 32t25 51
t9.5 69t-10 70t-25.5 52.5t-35.5 33t-40 11.5q-18 0 -35 -10t-30 -30t-21 -51t-8 -74z" />
    <glyph glyph-name="one" unicode="1" horiz-adv-x="262" 
d="M24 0v29h72v337h-48v29h122v-366h68v-29h-214z" />
    <glyph glyph-name="two" unicode="2" horiz-adv-x="283" 
d="M24 0q38 63 77.5 123.5t77.5 123.5q16 26 16 53t-17 46t-44 19q-18 0 -32 -10.5t-24 -26t-15.5 -33t-5.5 -32.5l-29 3q0 25 9 48t25 41t37.5 29t47.5 11q28 0 49 -10t35 -27t21 -40t7 -48q0 -20 -7 -41.5t-18 -37.5l-103 -162h112v-29h-219z" />
    <glyph glyph-name="three" unicode="3" horiz-adv-x="300" 
d="M276 129q0 -28 -11.5 -51.5t-30.5 -41t-44 -27t-52 -9.5q-35 0 -65 16.5t-49 45.5l24 15q11 -17 32.5 -31.5t41.5 -14.5q18 0 32.5 9.5t24 24t15 31.5t5.5 33q0 19 -6 36.5t-17.5 31.5t-27.5 23t-36 9h-32l105 137h-126v29h185l-102 -137q27 0 51 -10t42.5 -27.5
t29.5 -41t11 -50.5z" />
    <glyph glyph-name="four" unicode="4" horiz-adv-x="376" 
d="M301 67v-125h-73v125h-204l139 328h80l-126 -299h111v237h73v-237h51v-29h-51z" />
    <glyph glyph-name="five" unicode="5" horiz-adv-x="294" 
d="M270 138q0 -28 -10 -53t-28 -44t-42.5 -30t-52.5 -11q-35 0 -65.5 18t-47.5 49l24 14q15 -26 32.5 -37t34.5 -11q31 0 54 30t23 77q0 48 -22 75t-54 27q-17 0 -34.5 -9t-34.5 -27v189h195v-29h-166v-106q31 16 69 16q30 0 53.5 -11t39.5 -29.5t24 -44t8 -53.5z" />
    <glyph glyph-name="six" unicode="6" horiz-adv-x="361" 
d="M337 195q0 -34 -10 -69.5t-29.5 -64t-48.5 -47t-68 -18.5q-38 0 -67 17.5t-49 45t-30.5 61.5t-10.5 68q0 33 7.5 64.5t24.5 60.5l164 269h88l-117 -193q35 -3 62 -21.5t46 -46.5t28.5 -61t9.5 -65zM306 224q-4 25 -14 50t-26 44t-38 31t-50 12h-4l-120 -197q4 -25 14 -50
t26 -45t38.5 -32.5t51.5 -12.5z" />
    <glyph glyph-name="seven" unicode="7" horiz-adv-x="292" 
d="M103 -72h-79l154 438h-109v29h199z" />
    <glyph glyph-name="eight" unicode="8" horiz-adv-x="381" 
d="M196 0q-34 0 -65 11.5t-55 32t-38 49.5t-14 65q0 51 29 90t75 57q-25 15 -39 39.5t-14 53.5q0 23 9 43t24.5 34.5t35.5 23t42 8.5q24 0 45.5 -7.5t38 -22t26.5 -34.5t10 -45q0 -29 -14 -53.5t-39 -39.5q48 -18 76 -57.5t28 -90.5q0 -32 -13 -60.5t-35.5 -50t-51.5 -34
t-61 -12.5zM329 158q0 29 -11 52.5t-29 40t-40.5 25.5t-45.5 9q-20 0 -38 -7t-32 -22.5t-22.5 -39.5t-8.5 -58q0 -32 9 -55.5t24 -38.5t34.5 -22.5t39.5 -7.5q22 0 43.5 8t38.5 24t27.5 39t10.5 53zM277 398q0 39 -21.5 60t-47.5 21q-25 0 -44.5 -19.5t-19.5 -61.5t20 -62.5
t45 -20.5t46.5 21t21.5 62z" />
    <glyph glyph-name="nine" unicode="9" horiz-adv-x="361" 
d="M53 -190l117 193q-35 3 -62 21.5t-46 46.5t-28.5 61t-9.5 65q0 34 10 69.5t29.5 64.5t49 47.5t67.5 18.5q37 0 66.5 -17.5t49.5 -45.5t30.5 -62t10.5 -68q0 -33 -7.5 -64.5t-24.5 -60.5l-164 -269h-88zM307 228q-4 25 -14 50t-26 45t-38.5 32.5t-51.5 12.5l-122 -200
q4 -26 14 -50.5t26.5 -44t39 -31t52.5 -11.5z" />
    <glyph glyph-name="colon" unicode=":" horiz-adv-x="137" 
d="M113 36q0 -18 -13 -30.5t-31 -12.5t-31.5 12t-13.5 31t13 32t32 13t31.5 -13t12.5 -32zM113 186q0 -18 -13 -31t-31 -13q-19 0 -32 12.5t-13 31.5t13 32t32 13t31.5 -13t12.5 -32z" />
    <glyph glyph-name="semicolon" unicode=";" horiz-adv-x="137" 
d="M39 -29l17 23q-14 8 -22.5 16.5t-8.5 26.5q0 19 12.5 31.5t31.5 12.5t31.5 -13t12.5 -32q0 -11 -6 -22.5t-14.5 -22.5t-17 -21t-13.5 -16zM113 186q0 -18 -13 -31t-31 -13q-19 0 -32 12.5t-13 31.5t13 32t32 13t31.5 -13t12.5 -32z" />
    <glyph glyph-name="less" unicode="&#x3c;" horiz-adv-x="398" 
d="M116 277l258 -112v-69l-350 153v58l350 153v-69z" />
    <glyph glyph-name="equal" unicode="=" horiz-adv-x="412" 
d="M388 247v-63h-364v63h364zM388 372v-64h-364v64h364z" />
    <glyph glyph-name="greater" unicode="&#x3e;" horiz-adv-x="398" 
d="M24 391v69l350 -153v-58l-350 -153v69l258 112z" />
    <glyph glyph-name="question" unicode="?" horiz-adv-x="371" 
d="M211 36q0 -19 -13.5 -31t-31.5 -12t-31 12.5t-13 30.5q0 19 12.5 32t31.5 13t32 -13t13 -32zM347 411q0 -45 -12.5 -73.5t-31.5 -46.5t-41.5 -29t-41.5 -22.5t-31.5 -26t-12.5 -39.5v-53h-29v53q0 29 9 49t22.5 36t29.5 30t29.5 30.5t22.5 38t9 53.5q0 24 -5.5 49
t-18.5 45t-33 33t-48 13q-20 0 -39 -9t-34.5 -23t-25.5 -33t-11 -38q15 -2 31.5 -14t16.5 -29q0 -15 -8 -23t-22 -8t-23 6t-14.5 15.5t-8 21.5t-2.5 23q0 32 14 58t36.5 44.5t51.5 28.5t59 10q35 0 64.5 -14t51.5 -37t34 -54t12 -65z" />
    <glyph glyph-name="A" unicode="A" horiz-adv-x="745" 
d="M512 0v29h73v87q0 72 -35 128t-106 79q-27 -86 -48.5 -172.5t-53.5 -171.5q33 -12 68 -12v-29q-21 2 -40 5t-39 9q-14 -31 -31 -59.5t-40 -50.5t-52 -35t-66 -13q-24 0 -46 7.5t-39.5 21.5t-28 34t-10.5 45q0 17 6 32.5t17 27.5t26 19t33 7q11 0 23 -4t22 -11.5
t16.5 -17.5t6.5 -22q0 -13 -9 -22.5t-22 -9.5q-21 0 -33 19t-12 38q-21 -4 -33 -19.5t-12 -36.5q0 -18 8 -32.5t20.5 -25t29 -16t33.5 -5.5q33 0 58.5 12t45.5 31.5t35.5 45t27.5 52.5q-62 31 -94.5 85t-32.5 122q0 44 18.5 79.5t49 60t69 38t79.5 13.5q8 0 15.5 -1t15.5 -3
q14 47 37.5 90.5t55.5 79.5q24 28 55 41t67 13h77v-29h-59v-524h69v-29h-215zM416 330q-8 2 -16.5 2.5t-16.5 0.5q-37 0 -69 -13t-56 -35.5t-37.5 -54.5t-13.5 -69q0 -27 8 -52.5t22.5 -47.5t34.5 -40t44 -30q33 83 53 168.5t47 170.5zM584 541q-26 -12 -46.5 -33.5
t-36.5 -48t-27.5 -55t-20.5 -54.5q42 -13 75.5 -40.5t55.5 -65.5v297z" />
    <glyph glyph-name="B" unicode="B" horiz-adv-x="528" 
d="M468 441q0 -43 -25.5 -70t-63.5 -41q61 -17 96 -63.5t35 -109.5q0 -14 -5 -30.5t-11 -29.5q-29 -57 -76 -77t-107 -20h-214v29h72v129q-35 12 -62.5 34t-47.5 50.5t-30.5 63t-10.5 70.5q0 51 17 93t47.5 73t73 48t92.5 17h6q30 44 70 79l20 -21q-15 -13 -25.5 -28.5
t-20.5 -32.5q36 -4 67.5 -15.5t54 -31t35.5 -48.5t13 -68zM434 168q0 29 -9.5 54.5t-26.5 45t-41.5 31t-54.5 11.5h-58v-136q61 0 110 35l17 -23q-28 -19 -60.5 -30t-66.5 -11v-116q11 0 23 -0.5t23 -0.5q30 0 57 7q20 5 36 19t27.5 33t17.5 40t6 41zM226 576
q-41 0 -74.5 -17.5t-56.5 -46t-35.5 -65t-12.5 -74.5q0 -62 32.5 -112t89.5 -73q0 27 -0.5 52.5t-0.5 48.5q0 38 2 73t9 69.5t20 70t35 74.5h-8zM387 451q0 51 -29.5 80t-77.5 39q-26 -54 -31 -112t-5 -118q30 0 56 4.5t45.5 17t30.5 34t11 55.5z" />
    <glyph glyph-name="C" unicode="C" horiz-adv-x="520" 
d="M490 97q-36 -45 -87 -71t-109 -26q-59 0 -107.5 24.5t-83.5 65t-54 93t-19 108.5q0 60 21 112.5t58 92.5t88 63t112 23q30 0 60 -10t54 -29t39 -45t15 -59q0 -10 -3 -20.5t-9 -19.5t-15 -14.5t-20 -5.5q-18 0 -31.5 17t-13.5 34q0 13 9 21.5t22 8.5q10 0 18 -5t14 -13
q0 23 -12 43t-30.5 35t-41.5 23.5t-46 8.5q-56 0 -96.5 -22.5t-66 -60t-37.5 -85t-12 -96.5q0 -48 12 -94t37 -83t64 -59.5t92 -22.5q22 0 44 7.5t43 19.5t39 27.5t31 31.5l22 -18v0z" />
    <glyph glyph-name="D" unicode="D" horiz-adv-x="627" 
d="M609 293q0 -61 -22 -114.5t-61 -93t-92 -62.5t-114 -23h-216v29h73v126q-35 10 -64 30t-50 47.5t-33 61t-12 69.5q0 49 17.5 89.5t48 69t72 44.5t89.5 16q18 29 39.5 55t47.5 49l19 -21q-18 -18 -32 -39t-26 -44q32 0 63.5 -4t61.5 -13q43 -14 78.5 -41.5t60.5 -64.5
t38.5 -80t13.5 -86zM533 291q0 50 -17 97t-48 84t-74.5 59t-95.5 22h-18q-19 -44 -24 -90t-5 -94v-195q27 1 53.5 9t49.5 24l16 -23q-55 -37 -119 -39v-116h47q53 0 96.5 22t74 59t47.5 84t17 97zM229 552q-39 -2 -72.5 -17t-58 -40t-38.5 -58.5t-14 -73.5q0 -31 10 -58.5
t27 -51t41 -41t53 -27.5v69q0 41 1 79t5.5 74.5t15 72t30.5 72.5z" />
    <glyph glyph-name="E" unicode="E" horiz-adv-x="416" 
d="M398 135q-8 -33 -25.5 -58t-42.5 -42t-55 -26t-62 -9q-36 0 -71 12t-62.5 34.5t-44.5 53.5t-17 70q0 56 34 98.5t85 62.5q-35 16 -59.5 46.5t-24.5 70.5q0 30 13 54.5t34 42t48 27t55 9.5q25 0 49.5 -7t43.5 -21t31 -35t12 -49q0 -14 -7.5 -22.5t-21.5 -8.5
q-20 0 -32.5 17t-12.5 35q0 27 26 29q-14 17 -35.5 25.5t-43.5 8.5q-23 0 -39 -8.5t-26.5 -22.5t-15.5 -32.5t-5 -38.5q0 -18 6.5 -36t18 -33t27 -25t34.5 -12q11 -2 22.5 -2h23.5h18t19 1v-29q-39 0 -58 -1t-34 -3q-25 -4 -44.5 -18t-33.5 -34t-21.5 -44t-7.5 -47
q0 -27 7 -52t21.5 -44.5t36.5 -31t52 -11.5q57 0 100 28t57 85l28 -7v0z" />
    <glyph glyph-name="F" unicode="F" horiz-adv-x="606" 
d="M560 445v108h-176q-5 -27 -5.5 -54.5t-0.5 -54.5v-108h109v82h29v-193h-29v82h-109v-53q0 -20 -1 -40t-5 -40h11q9 0 18 1.5t17 3.5l6 -28q-15 -4 -29.5 -5t-29.5 -1q-11 -34 -29 -63.5t-43 -51t-56.5 -34t-68.5 -12.5q-30 0 -57 9t-48 26.5t-33 42t-12 56.5q0 20 8.5 39
t22.5 34t32.5 24.5t38.5 9.5q18 0 33 -7t26 -18.5t17.5 -27t6.5 -32.5q0 -15 -9.5 -31.5t-27.5 -16.5q-22 0 -35.5 14.5t-13.5 36.5q0 12 6.5 21t19.5 9q14 0 25 -9q-14 32 -51 32q-15 0 -28 -7t-22.5 -18.5t-15.5 -25.5t-6 -27q0 -25 10 -45t27 -33.5t39 -20.5t46 -7
q28 0 50 14t37.5 35.5t26 47t15.5 49.5q-33 12 -60 32t-46.5 47t-30.5 59t-11 67q0 43 14 80t39 65.5t60.5 47t77.5 24.5q21 36 53.5 62.5t69.5 45.5l14 -25q-26 -14 -49.5 -33.5t-34.5 -47.5h196v-137h-28zM324 548q-33 -7 -60.5 -24t-46.5 -41t-29.5 -54t-10.5 -64
q0 -62 33.5 -109t90.5 -69q2 17 3 35t1 37q0 33 -1.5 67.5t-1.5 68.5q0 42 4 80.5t18 72.5z" />
    <glyph glyph-name="G" unicode="G" horiz-adv-x="575" 
d="M497 196v-68t-1 -68q26 -23 26 -57h-29q0 21 -14.5 34.5t-34.5 13.5q-8 0 -23 -8t-36 -17.5t-47.5 -17.5t-57.5 -8q-54 0 -102 23.5t-83.5 62.5t-56 89t-20.5 103q0 62 19 117.5t55 97t88 65.5t117 24q30 0 60 -10t54 -29t39 -45t15 -59q0 -21 -11.5 -40.5t-35.5 -19.5
q-20 0 -31.5 17t-11.5 35q0 12 6 21t19 9q11 0 20.5 -5.5t15.5 -13.5q0 23 -12 43t-30.5 35t-41.5 23.5t-46 8.5q-55 0 -95 -22t-66 -59t-38.5 -84t-12.5 -96q0 -45 11 -91t35 -84t61 -62t90 -24q30 0 58.5 10t53.5 26q8 5 19 10v120h-121v28h256v-28h-60z" />
    <glyph glyph-name="H" unicode="H" horiz-adv-x="805" 
d="M571 0v29h73v270h-276v-141q0 -25 0.5 -49.5t0.5 -50.5v-33.5t-2 -33.5q-3 -43 -18 -83t-41 -70.5t-62.5 -48.5t-82.5 -18q-27 0 -53.5 9.5t-46.5 26.5t-32.5 40.5t-12.5 52.5q0 12 4 24.5t11.5 23t18.5 17.5t26 7q9 0 17 -5t15 -12.5t11 -17t4 -17.5q0 -13 -8.5 -21.5
t-21.5 -8.5q-14 0 -25.5 10t-16.5 22q-4 -8 -5 -14.5t-1 -14.5q0 -21 11.5 -38.5t29 -29.5t38.5 -18.5t39 -6.5q36 0 60.5 17.5t39.5 44.5t21 59.5t6 62.5v569h-71v29h216v-29h-69v-225h276v225h-73v29h216v-29h-69v-524h69v-29h-216z" />
    <glyph glyph-name="I" unicode="I" horiz-adv-x="252" 
d="M18 0v29h72v524h-72v29h216v-29h-69v-524h69v-29h-216z" />
    <glyph glyph-name="J" unicode="J" horiz-adv-x="270" 
d="M182 553v-555q0 -40 -11 -80.5t-33.5 -73t-56 -53t-78.5 -20.5q-27 0 -51.5 9t-42.5 25t-28.5 39t-10.5 51q0 10 4.5 21t12 20t17 15t20.5 6q17 0 31 -16t14 -33q0 -13 -9.5 -20t-21.5 -7q-11 0 -21 6t-16 16q-2 -5 -2 -8.5v-8.5q0 -17 8.5 -32.5t22 -27.5t30 -19
t33.5 -7q30 0 51.5 16.5t35.5 41t20.5 53t6.5 53.5v589h-71v29h216v-29h-70z" />
    <glyph glyph-name="K" unicode="K" horiz-adv-x="807" 
d="M789 122q0 -25 -9.5 -47.5t-26 -39t-39 -26t-47.5 -9.5q-38 0 -71.5 18t-54.5 49l-80 117q-20 30 -41.5 59t-41.5 58v-63q0 -47 -13.5 -92.5t-40.5 -81.5t-66.5 -58t-91.5 -22q-29 0 -56 9.5t-47.5 27t-32.5 42t-12 55.5q0 22 8 41t22.5 33.5t33.5 23t41 8.5
q16 0 30.5 -6.5t26 -17t18 -25.5t6.5 -31q0 -20 -9 -36t-32 -16q-20 0 -33 15.5t-13 33.5q0 32 31 32q4 0 11.5 -3.5t9.5 -5.5q-14 32 -49 32q-32 0 -52.5 -24.5t-20.5 -54.5q0 -25 10 -44.5t27 -33t38.5 -20.5t44.5 -7q39 0 65.5 24t42.5 58.5t23 73.5t7 70v315h-73v29h216
v-29h-70v-209q45 51 92 105t93 105q10 11 24.5 19t29.5 8q34 0 60.5 -20t26.5 -56q0 -13 -7.5 -26t-23.5 -13q-19 0 -35 10.5t-16 30.5q0 11 7 19.5t19 8.5q3 0 9.5 -0.5t8.5 -2.5q-8 11 -19.5 16t-23.5 5q-14 0 -20 -4t-17 -14q-15 -15 -38 -40.5t-46.5 -52.5t-43 -50.5
t-27.5 -32.5l91 -132q9 -14 22.5 -31.5t27 -36.5t25 -36.5t18.5 -30.5q7 -5 13.5 -14t15 -17.5t19.5 -15t28 -6.5q16 0 29 7.5t22 19.5t13.5 26.5t4.5 29.5h29v0z" />
    <glyph glyph-name="L" unicode="L" horiz-adv-x="473" 
d="M750 -33q-13 -51 -44.5 -78t-83.5 -27q-46 0 -101.5 20.5t-112.5 49t-111 59t-97 51.5q-21 -26 -52 -42t-65 -16q-26 0 -45.5 15t-19.5 43q0 30 21.5 47t49.5 17q21 0 40.5 -5t39.5 -12q7 20 9 46.5t2 53.5q0 20 -0.5 39.5t-0.5 35.5v155q0 33 10.5 64.5t30.5 56.5
t48 40.5t64 15.5q23 0 45 -7t38.5 -20.5t26.5 -33t10 -44.5q0 -10 -3.5 -20.5t-10 -19.5t-16 -14.5t-20.5 -5.5q-20 0 -35 14t-15 34q0 14 9.5 21t22.5 7q12 0 22.5 -7.5t15.5 -17.5q1 4 1.5 7t0.5 7q0 15 -8 28t-20 22.5t-27 15t-29 5.5q-29 0 -46.5 -13.5t-26.5 -37
t-12 -55.5t-3 -68q0 -33 1 -68t1 -70q0 -54 -6 -102t-28 -83q27 -11 60 -27.5t69.5 -33.5t74 -34t74 -30.5t70.5 -22t62 -8.5q15 0 30.5 3.5t29 11.5t23.5 19.5t13 28.5zM159 63q-16 5 -33 9.5t-34 4.5t-31 -7.5t-14 -27.5q0 -14 10.5 -22t24.5 -8q26 0 45.5 14.5t31.5 36.5
z" />
    <glyph glyph-name="M" unicode="M" horiz-adv-x="720" 
d="M486 0v29h73v506l-188 -279q20 -35 34 -79.5t14 -84.5q0 -18 -4 -36.5t-13 -34t-23.5 -25.5t-35.5 -10q-20 0 -35.5 8.5t-26 22t-16 31.5t-5.5 36q0 36 15 70t35 63l-192 306v-494h69v-29h-169v29h71v524h-71v29h151l186 -298l201 298h146v-29h-69v-524h69v-29h-216z
M374 60q0 32 -15.5 67.5t-31.5 62.5q-16 -23 -27 -50t-11 -56q0 -24 13 -47t41 -23q19 0 25 15.5t6 30.5z" />
    <glyph glyph-name="N" unicode="N" horiz-adv-x="693" 
d="M861 648q0 -30 -22 -46.5t-50 -16.5q-16 0 -33.5 14.5t-17.5 31.5q0 12 9.5 21t21.5 9q15 0 30.5 -12t19.5 -27q13 12 13 30q0 22 -19 33.5t-38 11.5q-38 0 -59 -23.5t-31 -58t-12 -72.5t-2 -66v-478h-23l-269 492q0 -44 1 -88t1 -89q0 -54 -3 -105q-3 -43 -18.5 -83.5
t-42.5 -72t-64 -51t-83 -19.5q-30 0 -57.5 9t-48.5 26t-33.5 42t-12.5 57q0 45 30 75t75 30q37 0 59 -23.5t22 -59.5q0 -20 -11 -34t-31 -14t-32 16t-12 33q0 14 7.5 22.5t21.5 8.5q13 0 23 -8q-14 32 -51 32q-15 0 -28 -7t-22.5 -18.5t-15.5 -25.5t-6 -27q0 -26 10.5 -45.5
t27.5 -33t39 -20.5t46 -7q45 0 78.5 20.5t56 53t34 72.5t11.5 80v315h-87v29h151l228 -418v306q0 35 3 79.5t16 84t40.5 66.5t76.5 27q33 0 58 -21.5t25 -56.5z" />
    <glyph glyph-name="O" unicode="O" horiz-adv-x="602" 
d="M572 292q0 -57 -20 -111t-55.5 -95.5t-85.5 -66.5t-110 -25t-110 25t-85.5 66.5t-55.5 95.5t-20 111t19.5 111t55.5 96t86 67t110 25t110 -25t86 -67t55.5 -96t19.5 -111zM495 287q0 42 -11.5 90.5t-35 89.5t-60 68.5t-87.5 27.5q-48 0 -84.5 -26t-61 -65.5t-36.5 -86.5
t-12 -88q0 -42 11 -90t35 -89.5t60.5 -68.5t87.5 -27q48 0 84.5 26t61 65.5t36.5 86t12 87.5z" />
    <glyph glyph-name="P" unicode="P" horiz-adv-x="506" 
d="M488 415q0 -40 -14.5 -70t-39 -49.5t-57.5 -29t-70 -9.5q-14 0 -26.5 1.5t-26.5 3.5v-88q50 0 92 24l14 -25q-50 -28 -106 -28v-116h69v-29h-216v29h72v128q-35 12 -64.5 33.5t-51 50.5t-33.5 63t-12 72q0 49 17.5 91.5t48.5 73t73.5 48.5t91.5 18q35 47 88 81l15 -24
q-17 -11 -28 -27.5t-23 -32.5q85 -8 136 -53.5t51 -135.5zM229 577q-40 -4 -73 -20.5t-57 -43t-37.5 -61.5t-13.5 -75q0 -66 35 -116t96 -73v124q0 69 8.5 138t41.5 127zM408 425q0 61 -33 100t-93 48q-20 -39 -25 -83.5t-5 -88.5q0 -27 1 -53.5t1 -53.5q10 -1 19 -2t19 -1
q63 0 89.5 37.5t26.5 96.5z" />
    <glyph glyph-name="Q" unicode="Q" horiz-adv-x="608" 
d="M902 -74q0 -66 -30.5 -102.5t-97.5 -36.5q-43 0 -88 15t-90 37.5t-88 49t-82.5 49t-73.5 37.5t-60 15q-25 0 -47.5 -8.5t-39.5 -23.5t-27 -36t-10 -46l-28 -3v5q0 44 24 77t64 50q-46 15 -82 44t-61.5 67.5t-39 83.5t-13.5 92q0 57 19.5 111t55 96t85.5 67t110 25
q61 0 111 -25t85.5 -66.5t55 -95.5t19.5 -112q0 -49 -14 -95.5t-41 -85.5t-65.5 -68t-87.5 -42q32 -11 61 -26.5t63 -29.5q30 -13 64.5 -28.5t71 -29.5t73.5 -23.5t70 -9.5q82 0 106 77zM497 292q0 42 -12 89.5t-36 88t-61 67t-86 26.5t-85.5 -26.5t-60.5 -67t-36 -88
t-12 -89.5t12 -89t36 -87.5t60.5 -67t85.5 -26.5t85.5 26.5t61 66.5t36.5 87.5t12 89.5z" />
    <glyph glyph-name="R" unicode="R" horiz-adv-x="572" 
d="M740 -20q-5 -51 -40.5 -81t-85.5 -30q-38 0 -71.5 22.5t-52.5 54.5q-30 51 -60 100t-59 99q-6 10 -15.5 28t-20 37t-20.5 35t-17 21q-11 8 -25 13t-29 5v-110q8 0 16.5 0.5t16.5 1.5l10 -27q-21 -3 -43 -3v-117h69v-29h-216v29h72v133q-32 13 -60 36t-48 52t-31.5 62.5
t-11.5 68.5q0 47 16.5 87.5t46 70.5t70 47.5t87.5 19.5q37 51 89 82l15 -24q-14 -9 -28.5 -27t-22.5 -32q40 -4 72.5 -17t55.5 -35t36 -53.5t13 -73.5q0 -55 -32.5 -85.5t-81.5 -44.5q15 -8 25 -20q7 -7 21 -29t32.5 -52t38 -64.5t38 -66.5t32.5 -58t21 -38q12 -22 33.5 -42
t47.5 -20q13 0 25.5 7t22 18.5t15 25t5.5 26.5zM218 576q-80 -11 -125 -62.5t-45 -131.5q0 -61 33.5 -111.5t87.5 -76.5q0 29 -1 59.5t-1 62.5q0 69 9 136.5t42 123.5zM387 437q0 56 -31 90.5t-85 44.5q-8 -17 -13.5 -36.5t-8.5 -43t-4.5 -53t-1.5 -66.5q0 -15 0.5 -30
t0.5 -30q33 0 59 6t45 20.5t29 38.5t10 59z" />
    <glyph glyph-name="S" unicode="S" horiz-adv-x="405" 
d="M387 139q0 -39 -16 -68.5t-41.5 -49t-59 -29t-67.5 -9.5q-35 0 -68 10t-59 29.5t-42 49t-16 68.5q0 21 6 40.5t18 35t29 25t40 9.5q30 0 50.5 -21t20.5 -50q0 -23 -13.5 -40.5t-37.5 -17.5q-17 0 -33.5 13.5t-16.5 31.5q0 14 9 22t23 8q11 0 22.5 -6t17.5 -13
q0 23 -12.5 33.5t-34.5 10.5q-15 0 -26.5 -8t-19 -20t-11 -26.5t-3.5 -26.5q0 -31 13.5 -55t35 -41t48.5 -26t54 -9q23 0 44 6.5t37.5 20t26 35t9.5 50.5q0 36 -17.5 65.5t-43.5 55t-57 50t-57 52t-43.5 59t-17.5 72.5q0 31 11.5 55t31.5 39.5t46 23.5t55 8q25 0 51 -9.5
t45 -25.5v19h29v-153h-29v91q-14 23 -40 35t-52 12q-36 0 -58 -20.5t-22 -56.5q0 -21 7.5 -38.5t19.5 -32.5t27 -28.5t30 -28.5q24 -24 51.5 -48t51 -50.5t39 -57.5t15.5 -70z" />
    <glyph glyph-name="T" unicode="T" horiz-adv-x="547" 
d="M426 535q-21 0 -42 3t-42 3v-512h70v-29h-216v29h72v518q-12 0 -23.5 1.5t-23.5 1.5q-29 0 -60 -7t-56.5 -22t-42 -39.5t-16.5 -58.5q0 -19 6 -37.5t17 -32.5t27 -23t37 -9q8 0 18 5q-17 5 -25.5 14t-8.5 29q0 13 8.5 20.5t20.5 7.5q20 0 33 -16t13 -35q0 -27 -20 -40.5
t-45 -13.5q-23 0 -43 11.5t-34.5 29t-23 39.5t-8.5 43q0 44 18.5 77t49 55.5t69 33.5t78.5 11h80q25 0 49.5 -1.5t49.5 -1.5q15 0 31 1.5t28.5 7t21 16t8.5 27.5q0 4 -0.5 8t-1.5 9l29 4q1 -6 1 -12v-13q0 -56 -22.5 -79t-80.5 -23z" />
    <glyph glyph-name="U" unicode="U" horiz-adv-x="696" 
d="M607 553v-393q0 -70 -54 -115q-29 -25 -65.5 -39.5t-74.5 -14.5q-42 0 -79.5 12.5t-65.5 36t-44 58t-16 79.5q-38 7 -72 25.5t-60.5 45.5t-42 62t-15.5 75q0 43 18 79t47.5 62.5t68 41t79.5 14.5h176v-29h-125v-348q28 4 55.5 17.5t48.5 34.5t34 47.5t13 56.5v12t-2 13
l29 8q1 -6 1.5 -12.5t0.5 -12.5q0 -38 -14.5 -71t-39 -58.5t-57.5 -42t-69 -21.5q0 -17 1 -33.5t5 -32.5q5 -22 19 -38.5t32.5 -28t40.5 -17t42 -5.5q29 0 57 10.5t50 29t35.5 44t13.5 55.5v393h-59v29h159v-29h-71zM208 552q-32 -3 -61.5 -16t-51.5 -34.5t-35 -50
t-13 -62.5t13 -64t35.5 -54t51.5 -40.5t61 -23.5v345z" />
    <glyph glyph-name="V" unicode="V" horiz-adv-x="528" 
d="M76 553h-58v29h185v-29h-45l169 -447q26 48 50 96l48 96q9 19 19 37t18.5 37t14 39.5t5.5 43.5q0 57 -32.5 94.5t-91.5 37.5q-16 0 -34.5 -5.5t-35 -16t-27.5 -25.5t-11 -33v-5q26 0 39.5 -15t13.5 -33q0 -14 -7.5 -23.5t-21.5 -9.5q-15 0 -25 8.5t-16 21t-9 27t-3 25.5
q0 25 12 45.5t31.5 35.5t42.5 23.5t46 8.5q73 0 115 -43.5t42 -115.5q0 -57 -26 -107l-191 -371z" />
    <glyph glyph-name="W" unicode="W" horiz-adv-x="824" 
d="M737 553l-164 -574l-160 339l-146 -344l-174 579h-75v29h216v-29h-64l133 -421l93 220q-19 43 -34 87t-15 92q0 19 4 39t13.5 36.5t24.5 27.5t38 11q17 0 30 -8.5t21.5 -22t12.5 -31t4 -36.5q0 -32 -14 -69t-28 -66l134 -290l120 431h-70v29h169v-29h-69zM426 616
q-13 0 -17 -13t-4 -23q0 -14 3 -32t7.5 -36t10 -35.5t11.5 -29.5q5 7 10.5 20.5t9.5 28.5t6.5 29t2.5 23q0 27 -9.5 47.5t-30.5 20.5z" />
    <glyph glyph-name="X" unicode="X" horiz-adv-x="705" 
d="M471 0v29h57l-125 225l-62 -96q-19 -29 -37 -59t-39.5 -54t-50 -39.5t-68.5 -15.5q-29 0 -53 10.5t-40.5 28.5t-25.5 42.5t-9 53.5q0 21 6.5 41.5t19.5 36.5t31 25.5t41 9.5q42 0 69 -27.5t27 -69.5q0 -20 -13 -35.5t-33 -15.5q-18 0 -33.5 16.5t-15.5 34.5q0 11 7.5 20
t19.5 9q25 0 39 -21q-2 26 -21.5 43.5t-45.5 17.5q-18 0 -31 -8t-21.5 -20.5t-13 -28.5t-4.5 -31q0 -20 7.5 -38.5t20.5 -33t30.5 -23.5t37.5 -9q34 0 64 15q29 14 48 45q33 51 66 102.5t67 102.5l-150 270h-71v29h215v-29h-59l111 -200l129 200h-58v29h152v-29h-60
l-148 -228l163 -296h76v-29h-216z" />
    <glyph glyph-name="Y" unicode="Y" horiz-adv-x="551" 
d="M128 -158q-20 0 -39.5 4.5t-35 14t-25 25.5t-9.5 40q0 26 14 41.5t41 15.5q20 0 38 -13.5t18 -35.5q0 -14 -6.5 -24.5t-18.5 -10.5q-23 0 -34 11t-18 35q-6 -9 -6 -20q0 -15 7.5 -25t18.5 -17t24.5 -10t25.5 -3q25 0 48 10t44 25.5t39.5 34t34.5 35.5l-194 578h-77v29
h216v-29h-59l170 -509q28 39 56.5 89t51.5 104t37.5 108.5t14.5 103.5q0 28 -5.5 51.5t-18.5 41t-34 27t-52 9.5q-18 0 -34 -7.5t-28 -19.5t-18.5 -28t-6.5 -34q0 -15 4 -28t14 -24l-22 -19q-25 30 -25 69q0 24 9 45.5t25 38t37.5 26.5t45.5 10q37 0 63 -11.5t42.5 -32
t24 -49t7.5 -62.5q0 -70 -25.5 -147.5t-65 -152t-89 -139.5t-97.5 -111q-11 -10 -26.5 -20.5t-33 -19.5t-35.5 -14.5t-33 -5.5z" />
    <glyph glyph-name="Z" unicode="Z" horiz-adv-x="643" 
d="M595 108q0 32 -15 61t-41 48l21 24q28 -21 46.5 -56t18.5 -70q0 -29 -9.5 -53t-26.5 -41.5t-41 -27.5t-53 -10q-27 0 -58 13t-62 31.5t-60.5 38t-54.5 32.5q-12 -23 -25.5 -43.5t-30.5 -36t-39.5 -24.5t-50.5 -9q-49 0 -71.5 23.5t-22.5 53.5q0 18 8 36t23 32.5
t37.5 23.5t51.5 9q33 0 68 -8l218 398h-278v-110h-29v139h403l-247 -456q22 -12 50.5 -31t59 -38t59.5 -32.5t52 -13.5q43 0 71 27t28 70zM194 129q-14 2 -28.5 3.5t-28.5 1.5q-23 0 -40 -7t-28 -17.5t-17 -23.5t-6 -25q0 -19 12 -33t39 -14q12 0 21 4t19 16.5t23.5 35
t33.5 59.5z" />
    <glyph glyph-name="bracketleft" unicode="[" horiz-adv-x="220" 
d="M18 580h184v-21h-69v-740h69v-22h-184v783z" />
    <glyph glyph-name="backslash" unicode="\" horiz-adv-x="276" 
d="M66 663l192 -843h-47l-193 843h48z" />
    <glyph glyph-name="bracketright" unicode="]" horiz-adv-x="220" 
d="M202 -203h-184v22h69v740h-69v21h184v-783z" />
    <glyph glyph-name="asciicircum" unicode="^" horiz-adv-x="340" 
d="M138 529h64l120 -275h-69l-83 189l-83 -189h-69z" />
    <glyph glyph-name="underscore" unicode="_" horiz-adv-x="500" 
d="M0 -18h500v-54h-500v54z" />
    <glyph glyph-name="grave" unicode="`" horiz-adv-x="163" 
d="M129 245l-111 74l16 24l111 -74z" />
    <glyph glyph-name="a" unicode="a" 
d="M286 58q0 -26 -17 -42.5t-43 -16.5q-14 0 -26 7t-20 18q-27 -25 -61 -25q-23 0 -41.5 9t-32 24.5t-20.5 35.5t-7 42q0 21 7 41.5t19.5 37t31 26.5t41.5 10q14 0 27.5 -4.5t24.5 -12.5v11h68v-182q0 -5 5 -5q8 0 12 9t4 17h28zM169 169q-5 11 -16 17.5t-19 6.5
q-12 0 -20 -7.5t-13 -19.5t-7 -26.5t-2 -29.5q0 -14 2 -28t7 -25t13 -18t20 -7q11 0 20 7.5t15 15.5v114z" />
    <glyph glyph-name="b" unicode="b" horiz-adv-x="269" 
d="M251 110q0 -26 -9 -46.5t-25 -35t-37.5 -22.5t-46.5 -8q-51 0 -83 31.5t-32 82.5v400q0 29 20.5 49.5t49.5 20.5q14 0 26.5 -4.5t21.5 -15.5l-20 -21q-12 12 -30 12v-338q23 10 48 10q23 0 44.5 -9t37.5 -24.5t25.5 -36.5t9.5 -45zM170 110q0 16 -2.5 31.5t-8 27.5
t-14.5 19t-21 7q-9 0 -19.5 -4t-18.5 -9v-114q0 -14 10.5 -27.5t27.5 -13.5q12 0 21 7t14.5 18.5t8 26.5t2.5 31z" />
    <glyph glyph-name="c" unicode="c" horiz-adv-x="236" 
d="M218 43q-16 -23 -35 -34.5t-48 -11.5q-52 0 -84.5 32.5t-32.5 87.5q0 26 10.5 46t27.5 34t38 21t42 7q13 0 27 -3t26 -10t19.5 -17t7.5 -23q0 -14 -9 -22t-23 -8q-15 0 -31 13t-16 30q0 3 2 9q-11 -3 -18.5 -12.5t-12 -22t-6.5 -25.5t-2 -23q0 -11 2 -25.5t7 -27.5
t14.5 -22t23.5 -9q17 0 27.5 10t19.5 22l24 -16v0z" />
    <glyph glyph-name="d" unicode="d" horiz-adv-x="303" 
d="M265 541q-12 12 -30 12v-516q0 -2 1 -4t3 -2q8 0 12.5 9t4.5 17h28q0 -28 -17.5 -43.5t-46.5 -15.5q-12 0 -23 7t-18 16q-26 -24 -61 -24q-44 0 -72 32.5t-28 83.5q0 47 28 79.5t72 32.5q26 0 49 -15v302q0 29 20.5 49.5t49.5 20.5q14 0 26.5 -4.5t21.5 -15.5zM167 172
q-5 7 -12.5 13t-17.5 6q-13 0 -21.5 -8.5t-14 -20.5t-7.5 -25.5t-2 -23.5q0 -11 2 -25.5t7.5 -27.5t14 -21.5t21.5 -8.5q8 0 15 6t15 14v122z" />
    <glyph glyph-name="e" unicode="e" horiz-adv-x="245" 
d="M227 42q-38 -45 -100 -45q-21 0 -41 8.5t-35 23.5t-24 36t-9 47q0 24 10 45t26.5 36t38 23.5t44.5 8.5q13 0 26.5 -3.5t24 -10.5t17.5 -17.5t7 -25.5q0 -23 -10.5 -38t-27 -25t-35.5 -16.5t-37 -12.5q0 -17 14.5 -33t29.5 -16q19 0 33 9.5t26 23.5zM148 195
q-18 0 -33 -23.5t-15 -66.5q11 3 25.5 8t27 12t21.5 17t9 25t-11 21.5t-24 6.5z" />
    <glyph glyph-name="f" unicode="f" horiz-adv-x="187" 
d="M149 541q-12 12 -29 12v-328h34v-29h-34v-421h-69v421h-33v29h33v287q0 29 20.5 49.5t49.5 20.5q14 0 26.5 -4.5t21.5 -15.5z" />
    <glyph glyph-name="g" unicode="g" horiz-adv-x="253" 
d="M235 -154q0 -29 -20.5 -49t-49.5 -20q-28 0 -48 20l20 20q6 -5 13.5 -8t16.5 -3v210q-24 -16 -51 -16q-22 0 -40 10t-31 26t-20 36.5t-7 40.5t7 40.5t20 36.5t31 26t40 10q14 0 27 -5t24 -12v16h68v-379zM167 171q-6 8 -14.5 14.5t-19.5 6.5q-23 0 -32.5 -24.5
t-9.5 -55.5q0 -35 10 -56.5t33 -21.5q10 0 18.5 6t14.5 14v117z" />
    <glyph glyph-name="h" unicode="h" horiz-adv-x="297" 
d="M279 56q0 -26 -17 -42t-43 -16t-42 16t-16 42v118q0 9 -6 14t-14 5q-10 0 -19.5 -7t-17 -16.5t-12.5 -20.5t-5 -18v-131h-69v512q0 30 20.5 50t50.5 20q14 0 26.5 -4.5t21.5 -15.5l-21 -21q-12 12 -29 12v-360q32 32 74 32q26 0 48 -17t22 -45v-128q0 -5 4 -5
q7 0 10.5 10.5t4.5 15.5h29v0z" />
    <glyph glyph-name="i" unicode="i" horiz-adv-x="163" 
d="M145 60q0 -25 -17 -42t-42 -17t-41.5 17t-16.5 42v159h68v-180q0 -5 5 -5q7 0 11 10.5t4 15.5h29zM106 348q0 -18 -13 -31t-31 -13q-19 0 -31.5 12.5t-12.5 31.5t12.5 32t31.5 13t31.5 -13t12.5 -32z" />
    <glyph glyph-name="j" unicode="j" horiz-adv-x="163" 
d="M136 -155q0 -28 -21.5 -48t-48.5 -20q-28 0 -48 20l20 20q8 -5 13 -8t16 -3v419h69v-380zM145 348q0 -19 -13 -31.5t-32 -12.5q-18 0 -30.5 13t-12.5 31t12 31.5t31 13.5t32 -13t13 -32z" />
    <glyph glyph-name="k" unicode="k" horiz-adv-x="293" 
d="M275 58q0 -26 -17 -42.5t-43 -16.5q-22 0 -36.5 16t-27 37t-27 42t-37.5 32v-126h-69v512q0 29 20.5 49.5t49.5 20.5q14 0 26.5 -4.5t21.5 -15.5l-20 -21q-12 12 -30 12v-365q14 17 34 26.5t42 9.5q12 0 24 -3.5t22 -10.5t16.5 -17t6.5 -23q0 -14 -8.5 -23t-22.5 -9
q-17 0 -29.5 15.5t-12.5 32.5q0 7 1 10q-21 0 -36 -10.5t-26 -27.5q49 -6 85 -38.5t44 -81.5q0 -2 2 -4t4 -2q6 0 10 10.5t4 15.5h29v0z" />
    <glyph glyph-name="l" unicode="l" horiz-adv-x="155" 
d="M116 541q-11 12 -29 12v-516q0 -5 5 -5q6 0 10.5 10.5t4.5 15.5h29q0 -25 -17 -42t-42 -17t-42 17t-17 42v454q0 29 20.5 49.5t49.5 20.5t49 -20z" />
    <glyph glyph-name="m" unicode="m" horiz-adv-x="447" 
d="M429 58q0 -25 -17 -42t-42 -17t-42 17t-17 42v120q0 9 -6 12t-14 3q-7 0 -16.5 -5.5t-14.5 -12.5q2 -8 2 -12v-163h-70v178q0 6 -4 10.5t-10 4.5t-13.5 -4.5t-14 -11.5t-11 -15.5t-4.5 -15.5v-146h-68q0 5 0.5 27.5t0.5 50.5t0.5 57t0.5 47q0 9 -8 9t-11.5 -8.5
t-3.5 -16.5h-28q0 26 17 42.5t43 16.5q17 0 30 -9t21 -24q14 14 32 23.5t38 9.5q31 0 49 -23q13 11 29 17t33 6q27 0 48.5 -16.5t21.5 -45.5v-126q0 -5 5 -5q6 0 10.5 10.5t4.5 15.5h29v0z" />
    <glyph glyph-name="n" unicode="n" horiz-adv-x="345" 
d="M327 58q0 -25 -17 -42t-42 -17t-42 17t-17 42v117q0 9 -7 13.5t-15 4.5q-5 0 -13.5 -3t-17 -9.5t-14.5 -16.5t-6 -24v-140h-69v186q0 6 -6 6t-10 -9t-4 -17h-29q0 25 17 42t42 17q40 0 54 -36q14 16 35 26t43 10q23 0 37.5 -7t22 -17.5t10 -23t2.5 -23.5q0 -9 -0.5 -25
t-0.5 -33.5t-0.5 -33t-0.5 -23.5q0 -7 5 -7q7 0 10 10.5t4 15.5h29v0z" />
    <glyph glyph-name="o" unicode="o" horiz-adv-x="236" 
d="M218 112q0 -24 -7.5 -45t-20.5 -36.5t-31.5 -24.5t-40.5 -9t-40.5 10t-31.5 26.5t-20.5 36.5t-7.5 41q0 22 7 43t20 37.5t31.5 26.5t41.5 10t41.5 -9.5t31.5 -25.5t20 -37t7 -44zM189 111q0 34 -12 57.5t-37 23.5q-22 0 -32.5 -23.5t-10.5 -55.5q0 -30 11 -54.5t34 -24.5
t35 24t12 53z" />
    <glyph glyph-name="p" unicode="p" horiz-adv-x="250" 
d="M132 1q-22 0 -45 13v-238h-69v493h69v-57q11 6 21.5 9.5t24.5 3.5q22 0 40 -9.5t31 -24.5t20.5 -34.5t7.5 -40.5q0 -22 -6.5 -43t-19.5 -37t-31.5 -25.5t-42.5 -9.5zM158 104q0 41 -11.5 64.5t-34.5 23.5q-16 -3 -25 -17v-125q6 -5 14 -11t16 -6q20 0 30.5 21t10.5 50z
" />
    <glyph glyph-name="q" unicode="q" 
d="M286 -204q-10 -10 -22.5 -14.5t-26.5 -4.5q-32 0 -51 23t-19 59v157q-24 -16 -51 -16q-22 0 -40 10t-31 25.5t-20 35.5t-7 41t7 41.5t19.5 36t31 25.5t41.5 10q26 0 50 -16v16h68v-419q18 0 30 12zM167 171q-5 8 -14 14.5t-19 6.5q-43 0 -43 -88q0 -35 11 -52.5t31 -17.5
q11 0 19.5 6t14.5 14v117z" />
    <glyph glyph-name="r" unicode="r" horiz-adv-x="253" 
d="M205 138q-21 0 -32 17t-11 35v6q-19 0 -31 -8q4 -9 4 -21v-167h-68v185q0 7 -7 7q-4 0 -8.5 -7t-4.5 -19h-29q0 25 17 42t42 17q23 0 37 -14q23 14 49 14t49 -13.5t23 -38.5q0 -14 -7.5 -24.5t-22.5 -10.5z" />
    <glyph glyph-name="s" unicode="s" horiz-adv-x="209" 
d="M191 60q0 -15 -8 -27t-20.5 -19.5t-27.5 -11.5t-28 -4q-16 0 -32 5.5t-28.5 14.5t-20.5 21t-8 25q0 11 6 20t21 9q20 0 33.5 -15t13.5 -34q0 -4 -1 -8.5t-3 -7.5q8 -2 15 -2q8 0 19.5 2.5t11.5 13.5q0 7 -12 16.5t-27 21.5l-43 33q-15 11 -24.5 24.5t-9.5 27.5q0 15 7 26
t18.5 18.5t25.5 11.5t29 4q12 0 25.5 -2.5t25.5 -8.5t20 -16t8 -24t-6.5 -25t-22.5 -11q-20 0 -31.5 16t-11.5 33q0 5 2 8q-3 1 -9 1q-7 0 -16 -3t-9 -11q0 -5 8.5 -12.5t16.5 -13.5l33 -24q9 -6 19.5 -13.5t19.5 -16.5t15 -19.5t6 -22.5z" />
    <glyph glyph-name="t" unicode="t" horiz-adv-x="182" 
d="M164 60q0 -25 -17 -42t-42 -17t-42 17t-17 42v136h-28v29h28v168h69v-168h46v-29h-46v-157q0 -5 5 -5q6 0 10.5 10.5t4.5 15.5h29v0z" />
    <glyph glyph-name="u" unicode="u" horiz-adv-x="293" 
d="M275 59q0 -26 -17 -42.5t-43 -16.5q-17 0 -30 9t-21 24q-15 -14 -34 -23t-40 -9q-27 0 -49.5 16t-22.5 45v163h70v-178q0 -7 5.5 -10.5t11.5 -3.5q18 0 32.5 12.5t19.5 26.5v153h70v-186q0 -5 5 -5q7 0 10.5 7.5t3.5 17.5h29v0z" />
    <glyph glyph-name="v" unicode="v" horiz-adv-x="226" 
d="M208 109q0 -50 -27 -80.5t-78 -30.5q-38 0 -61.5 22t-23.5 60v145h69v-162q0 -15 8.5 -25t21.5 -10q16 0 28 7.5t19.5 19t11 26t3.5 28.5q0 12 -2 24.5t-5 23.5q-6 -5 -17 -5q-18 0 -30.5 15t-12.5 32q0 15 10 23t24 8q16 0 27.5 -10.5t19 -27.5t11.5 -39t4 -44z" />
    <glyph glyph-name="w" unicode="w" horiz-adv-x="364" 
d="M346 115q0 -51 -25 -83.5t-79 -32.5q-23 0 -45 9.5t-33 30.5q-15 -17 -34 -28.5t-42 -11.5q-26 0 -48 17t-22 45v164h69v-179q0 -8 6.5 -11t13.5 -3q17 0 32 14.5t15 30.5v148h70v-172q0 -14 8 -19t20 -5q33 0 49 24t16 53t-7 51q-8 -6 -17 -6q-14 0 -28 14.5t-14 28.5
t7 25t23 11t28.5 -13t20.5 -31.5t12 -38t4 -32.5z" />
    <glyph glyph-name="x" unicode="x" horiz-adv-x="286" 
d="M268 59q0 -24 -18 -41.5t-42 -17.5q-23 0 -34 12t-22 27q-12 -17 -32 -27.5t-41 -10.5h-8t-8 2q-14 3 -24 14t-10 25q0 15 11.5 22t24.5 7q14 0 27 -10t16 -24q8 5 15 12t11 16l-81 119q-2 -5 -4 -9t-2 -9h-29q0 24 17.5 41.5t41.5 17.5q21 0 34 -11t24 -28q13 17 32 28
t41 11q17 0 33.5 -10t16.5 -30q0 -17 -10 -23.5t-25 -6.5q-17 0 -27.5 9.5t-16.5 23.5q-18 -9 -26 -28l80 -119q6 8 6 18h29v0z" />
    <glyph glyph-name="y" unicode="y" horiz-adv-x="240" 
d="M222 -154q0 -29 -20.5 -49t-49.5 -20t-49 20l21 20q6 -5 13 -8t16 -3v218q-14 -11 -31 -17.5t-35 -6.5q-26 0 -47.5 17.5t-21.5 44.5v163h70v-175q0 -8 6.5 -12.5t13.5 -4.5q15 0 28 12t17 20v160h69v-379v0z" />
    <glyph glyph-name="z" unicode="z" horiz-adv-x="234" 
d="M216 62q0 -25 -17.5 -43t-42.5 -18q-11 0 -21.5 3.5l-21 7t-20.5 7t-21 3.5t-16 -4.5t-12 -11.5l-22 18q24 30 48.5 60t49.5 60q-7 0 -12 5l-10.5 10.5t-12.5 10t-18 4.5q-8 0 -15.5 -5t-9.5 -12l-24 7q6 23 17 41.5t40 18.5q22 0 41.5 -10t40.5 -10q8 0 14 5t11 11
l22 -19l-95 -115q11 -2 17.5 -7.5t12 -11t13 -10t19.5 -4.5q17 0 21 17l24 -8v0z" />
    <glyph glyph-name="braceleft" unicode="{" horiz-adv-x="263" 
d="M18 195q16 3 32.5 10.5t29.5 19t21.5 27t8.5 35.5q0 34 -9 67.5t-9 68.5q0 34 12.5 63.5t34 51.5t49 36.5t57.5 18.5v-17q-38 -7 -66 -33t-28 -71q0 -35 8 -69t8 -70q0 -27 -10 -50t-26 -41.5t-37 -32t-43 -21.5q22 -10 43 -24t37 -32t26 -41t10 -51q0 -35 -8 -69t-8 -69
q0 -45 28 -70.5t66 -36.5v-15q-30 4 -57.5 18.5t-48.5 36.5t-33.5 51t-12.5 64q0 34 9 67t9 67q0 21 -8 37t-21 27.5t-30 19t-34 10.5v17z" />
    <glyph glyph-name="bar" unicode="|" horiz-adv-x="91" 
d="M18 -300v996h55v-996h-55z" />
    <glyph glyph-name="braceright" unicode="}" horiz-adv-x="263" 
d="M245 178q-17 -3 -34 -10.5t-30 -19t-21 -27.5t-8 -37q0 -34 9 -67t9 -67q0 -35 -12.5 -64t-33.5 -51t-48.5 -36.5t-57.5 -18.5v15q38 11 66 36.5t28 70.5q0 35 -8 69t-8 69q0 28 10 51t26 41t37 32t43 24q-22 8 -43 21.5t-37 32t-26 41.5t-10 50q0 36 8 70t8 69
q0 45 -28 71t-66 33v17q30 -4 57.5 -18.5t49 -36.5t34 -51.5t12.5 -63.5q0 -35 -9 -68.5t-9 -67.5q0 -20 8.5 -35.5t21.5 -27t29.5 -19t32.5 -10.5v-17z" />
    <glyph glyph-name="asciitilde" unicode="~" horiz-adv-x="557" 
d="M539 319q-29 -29 -63 -45.5t-76 -16.5q-30 0 -62 9.5t-63 20.5t-60.5 20.5t-55.5 9.5q-23 0 -44 -8.5t-43 -30.5l-54 54q34 35 69.5 48.5t72.5 13.5q30 0 61.5 -9.5t62.5 -20.5t60.5 -20.5t55.5 -9.5q21 0 42.5 8.5t42.5 30.5z" />
    <glyph glyph-name="florin" unicode="&#x192;" horiz-adv-x="675" 
d="M384 325v-12q8 2 12 2q18 0 35.5 -8t19.5 -25q8 4 20 5.5t23 1.5q26 0 46.5 -13t20.5 -40q0 -13 -8 -24q-2 -4 -7 -4q-9 0 -9 8q0 1 3 6q5 5 5 14q0 17 -13 26.5t-31 9.5q-39 0 -61 -18.5t-22 -33.5q0 -8 5.5 -16.5t27.5 -8.5q14 0 25 4q0 1 3 1q8 0 8 -9q-3 -28 -27 -46
q-11 -8 -25.5 -13.5t-30.5 -5.5q-18 0 -36 7.5t-30 21.5q-12 -14 -30 -21.5t-36 -7.5q-17 0 -31 5.5t-25 13.5q-24 18 -27 46q0 9 7 9q3 0 4 -1q9 -4 25 -4q23 0 29 8.5t6 16.5q0 7 -6 16.5t-17.5 17t-27.5 13t-36 5.5q-17 0 -29.5 -9.5t-12.5 -26.5q0 -9 5 -14q2 -3 2 -6
q0 -8 -8 -8q-5 0 -7 4q-8 11 -8 24q0 27 20.5 40t46.5 13q11 0 23 -1.5t20 -5.5q2 17 20 25t33 8q6 0 14 -2v15q0 10 1 19.5t3 15.5q3 15 9 15q5 0 10 -15q1 -4 2 -8.5t2 -10.5l-16 -19h16v-11.5t-2 -10.5q8 -5 11 -11.5t3 -13.5q0 -14 -7 -21t-17 -11q-9 -5 -16.5 -10
t-7.5 -11q0 -8 5.5 -13t13.5 -8t18 -4.5t18 -1.5t17.5 1.5t17.5 4.5t13.5 8t5.5 13q0 6 -6.5 11t-17.5 10q-9 4 -16 10.5t-7 21.5q0 7 3 13.5t11 11.5q-2 5 -2 11.5v13.5q0 10 1 19.5t3 15.5q3 15 10 15q6 0 9 -15q1 -4 2 -9t2 -11l-16 -18h16zM398 305q-19 0 -31 -10
q-12 -9 -12 -17q0 -11 12 -18q10 -9 31 -9q19 0 31 9q12 7 12 18q0 8 -12 17q-13 10 -31 10zM278 305q-19 0 -31 -10q-12 -9 -12 -17q0 -11 12 -18q10 -9 31 -9q20 0 31 9q12 7 12 18q0 8 -12 17q-12 10 -31 10zM394 199q-11 -11 -27 -14t-29 -3t-29 3t-27 14
q-13 -11 -27.5 -15.5t-29.5 -4.5h-9t-9 1q8 -18 26.5 -28t38.5 -10q17 0 33.5 8t25.5 23q4 4 7 4q5 0 7 -4q9 -15 25.5 -23t33.5 -8q19 0 37.5 10t26.5 28q-5 -1 -8.5 -1h-8.5q-15 0 -30 4.5t-27 15.5zM276 426q-43 -9 -71.5 -29.5t-28.5 -58.5q0 -6 1 -11.5t1 -13.5t-9 -8
q-6 0 -7 7q-2 7 -2 13v13q0 27 10.5 52.5t29.5 45.5q-15 9 -26.5 23.5t-15.5 34.5q0 7 8 7q7 0 7 -7q7 -26 30 -40.5t48 -14.5q24 0 46 13t30 38q1 4 7 4q7 0 8 -4q8 -25 30.5 -38t45.5 -13q26 0 49 14.5t29 40.5q1 7 8 7q8 0 8 -10q-4 -17 -14.5 -30t-24.5 -22
q20 -20 31.5 -46t11.5 -55q0 -7 -0.5 -13t-1.5 -13q-2 -7 -8 -7q-8 0 -8 10q0 6 1 11.5t1 11.5q0 41 -24.5 60t-61.5 27q-23 3 -44.5 12.5t-35.5 30.5q-9 -16 -25 -26.5t-33 -15.5zM585 66q-20 -21 -48 -33t-58 -12q-16 -9 -33.5 -13t-35.5 -4h-10q-29 -15 -62 -15
q-35 0 -62 15h-10q-18 0 -35.5 4t-34.5 13q-30 0 -58 12t-47 33q-29 21 -51 50.5t-22 67.5q0 29 12.5 52.5t32.5 42.5q-9 19 -14.5 39t-5.5 41q0 46 23.5 85.5t64.5 69.5q40 29 93.5 46t113.5 17t113.5 -17t93.5 -46q41 -30 64.5 -69.5t23.5 -85.5q0 -21 -5.5 -41t-14.5 -39
q20 -19 32 -42.5t12 -52.5q0 -38 -21.5 -67.5t-50.5 -50.5zM506 40q38 8 66 36.5t28 70.5q0 35 -21 61q-2 4 -2 6q0 8 8 8q4 0 7 -4q25 -31 25 -71q0 -10 -2 -19t-4 -17q13 15 21.5 33.5t8.5 39.5q0 26 -13 48t-31 39q-3 3 -3 6q0 2 2 4q21 36 21 78t-21.5 78.5t-59.5 63.5
q-38 28 -89 44.5t-109 16.5t-109 -16.5t-89 -44.5q-38 -27 -60 -63.5t-22 -78.5q0 -40 22 -78q1 -1 1 -3q0 -5 -2 -7q-18 -17 -31 -39t-13 -48q0 -21 8 -39.5t22 -33.5q-2 8 -4 17t-2 19q0 40 25 71q1 4 7 4q7 0 7 -8q0 -4 -1 -6q-21 -26 -21 -61q0 -42 27.5 -70.5
t65.5 -36.5q-18 17 -29 39.5t-11 49.5q0 42 27 74q3 4 7 4q8 0 8 -8q0 -2 -2 -6q-24 -29 -24 -64q0 -22 8.5 -40.5t22.5 -32.5t32.5 -23t38.5 -12q-21 17 -34 40.5t-13 52.5q0 10 8 10q9 0 9 -10q0 -24 10 -44t27 -34.5t39 -22.5t45 -8t44.5 8t38.5 22.5t27.5 34.5t10.5 44
q0 10 9 10q8 0 8 -10q0 -29 -13 -52.5t-34 -40.5q41 6 71 35t30 73q0 36 -23 64q-2 4 -2 6q0 8 8 8q5 0 6 -4q28 -33 28 -74q0 -27 -11.5 -49.5t-29.5 -39.5z" />
    <glyph glyph-name="dagger" unicode="&#x2020;" horiz-adv-x="592" 
d="M384 -135q-26 -5 -48.5 -17t-39.5 -31q-17 19 -39.5 31t-48.5 17q32 102 51 214t20 215q-48 -5 -91 -25t-77 -52q-14 32 -38 56t-55 38q31 14 55 38t38 56q34 -33 76.5 -53t91.5 -25q-4 55 -26.5 104t-57.5 87q34 14 59.5 40t41.5 60q16 -34 41.5 -60t59.5 -40
q-36 -38 -58 -87t-26 -104q49 5 91.5 25t76.5 53q14 -32 38 -56t55 -38q-31 -14 -55 -38t-38 -56q-34 32 -77 52t-91 25q1 -103 20 -215t51 -214z" />
    <glyph glyph-name="daggerdbl" unicode="&#x2021;" horiz-adv-x="566" 
d="M367 212q-16 -14 -27 -25t-19.5 -23t-13.5 -27t-9 -35q48 4 88.5 23t72.5 49q14 -29 37 -51.5t52 -36.5q-61 -28 -89 -88q-32 31 -72 49.5t-88 23.5q4 -53 25 -98.5t56 -80.5q-32 -14 -57 -38.5t-40 -56.5q-14 32 -39.5 56.5t-57.5 38.5q35 35 56 80.5t25 98.5
q-47 -5 -87.5 -23.5t-72.5 -49.5q-29 61 -89 88q29 14 52 36.5t37 51.5q32 -30 73 -49t87 -23q-3 20 -8.5 35t-13.5 27t-19.5 23t-26.5 25q15 13 26.5 24.5t19.5 23.5t13.5 27t8.5 35q-46 -4 -87 -23t-73 -49q-14 29 -37 51.5t-52 36.5q60 27 89 88q32 -31 72.5 -49.5
t87.5 -23.5q-4 53 -25 98.5t-56 80.5q32 14 57.5 38.5t39.5 56.5q15 -32 40 -56.5t57 -38.5q-35 -35 -56 -80.5t-25 -98.5q48 5 88 23.5t72 49.5q28 -60 89 -88q-29 -14 -52 -36.5t-37 -51.5q-32 30 -72.5 49t-88.5 23q4 -20 9 -35t13.5 -27t19.5 -23.5t27 -24.5z" />
    <glyph glyph-name="circumflex" unicode="&#x2c6;" horiz-adv-x="226" 
d="M20 244l93 80l92 -80h-43l-49 42l-49 -42h-44z" />
    <glyph glyph-name="perthousand" unicode="&#x2030;" horiz-adv-x="690" 
d="M118 173q-23 0 -41.5 9.5t-31.5 25.5t-20 36.5t-7 41.5t7.5 41t20.5 36t31.5 25.5t40.5 9.5t40.5 -9.5t31.5 -25.5t20.5 -35.5t7.5 -40.5q0 -22 -7 -42.5t-20 -36.5t-31.5 -25.5t-41.5 -9.5zM189 283q0 14 -3.5 28t-10 25.5t-15.5 18.5t-21 7q-22 0 -32 -22t-10 -55
q0 -32 10 -53.5t33 -21.5q12 0 21 6.5t15 17t9.5 23.5t3.5 26zM352 -4q-23 0 -41.5 9.5t-31.5 25.5t-20 36.5t-7 41.5t7.5 41t20.5 36t31.5 25.5t40.5 9.5t40.5 -9.5t31.5 -25.5t20.5 -35.5t7.5 -40.5q0 -22 -7 -42.5t-20 -36.5t-31.5 -25.5t-41.5 -9.5zM423 106
q0 14 -3.5 28t-10 25.5t-15.5 18.5t-21 7q-22 0 -32 -22t-10 -55q0 -32 10 -53.5t33 -21.5q12 0 21 6.5t15 17t9.5 23.5t3.5 26zM168 0h-43l174 398h43zM572 -4q-23 0 -41.5 9.5t-31.5 25.5t-20 36.5t-7 41.5t7.5 41t20.5 36t31.5 25.5t40.5 9.5t40.5 -9.5t31.5 -25.5
t20.5 -35.5t7.5 -40.5q0 -22 -7 -42.5t-20 -36.5t-31.5 -25.5t-41.5 -9.5zM643 106q0 14 -3.5 28t-10 25.5t-15.5 18.5t-21 7q-22 0 -32 -22t-10 -55q0 -32 10 -53.5t33 -21.5q12 0 21 6.5t15 17t9.5 23.5t3.5 26z" />
    <glyph glyph-name="guilsinglleft" unicode="&#x2039;" horiz-adv-x="157" 
d="M18 258l121 122v-76l-45 -46l45 -45v-76z" />
    <glyph glyph-name="OE" unicode="&#x152;" horiz-adv-x="779" 
d="M761 135q-8 -34 -26.5 -59.5t-44 -42t-57 -25t-64.5 -8.5t-67 12.5t-59 33.5q-33 -26 -72.5 -39t-81.5 -13q-60 0 -110 25t-85.5 66.5t-55.5 95.5t-20 111t19.5 111t55.5 96t86 67t110 25q91 0 161 -59q23 25 55.5 37.5t66.5 12.5q25 0 48 -8t41 -22.5t29 -35.5t11 -48
q0 -13 -7 -21.5t-21 -8.5q-20 0 -32.5 17t-12.5 35q0 27 26 29q-14 17 -35.5 25.5t-43.5 8.5q-43 0 -65 -29.5t-22 -69.5q0 -28 10 -49t27.5 -34.5t40.5 -20.5t49 -7q11 0 21.5 0.5t21.5 0.5v-29h-32q-34 0 -64.5 -9t-53.5 -27t-36.5 -45.5t-13.5 -65.5q0 -27 7.5 -52
t22 -44.5t36.5 -31t52 -11.5q57 0 100 28t57 85zM499 331q-35 17 -59 47t-24 70q0 11 1 20.5t6 19.5q-24 32 -58 53.5t-76 21.5q-48 0 -84.5 -26t-61 -65.5t-36.5 -86.5t-12 -88q0 -34 6.5 -71t20 -71.5t35.5 -63.5t54 -47q17 -10 35 -16t37 -6q39 0 70 15t57 44
q-29 40 -29 90q0 27 9 52t25 46t37.5 37t46.5 25z" />
    <glyph glyph-name="bullet" unicode="&#x2022;" horiz-adv-x="220" 
d="M202 304q0 -19 -7 -35.5t-19.5 -29t-29.5 -19.5t-36 -7t-36 7t-29.5 19.5t-19.5 29t-7 35.5t7 36t19.5 29.5t29.5 19.5t36 7t36 -7t29.5 -19.5t19.5 -29.5t7 -36z" />
    <glyph glyph-name="endash" unicode="&#x2013;" horiz-adv-x="332" 
d="M18 207v66h296v-66h-296z" />
    <glyph glyph-name="emdash" unicode="&#x2014;" horiz-adv-x="512" 
d="M18 227v66h476v-66h-476z" />
    <glyph glyph-name="tilde" unicode="&#x2dc;" horiz-adv-x="235" 
d="M217 296q-7 -18 -17.5 -31t-32.5 -13q-12 0 -26.5 5.5t-24.5 11.5q-3 0 -17.5 9t-31.5 9q-5 0 -12 -4q-4 -5 -6 -10.5t-4 -10.5l-27 11q7 17 17.5 30t31.5 13q14 0 27 -5.5t26 -12t24.5 -12t22.5 -5.5t15.5 8t7.5 17l27 -10v0z" />
    <glyph glyph-name="guilsinglright" unicode="&#x203a;" horiz-adv-x="157" 
d="M18 213l45 45l-45 46v76l121 -122l-121 -121v76z" />
    <glyph glyph-name="oe" unicode="&#x153;" horiz-adv-x="362" 
d="M344 45q-20 -24 -45.5 -34.5t-55.5 -10.5q-16 0 -33.5 8t-29.5 17q-27 -25 -62 -25q-22 0 -40.5 9.5t-31.5 25.5t-20.5 35.5t-7.5 40.5q0 22 7 42.5t20 36.5t31.5 25.5t41.5 9.5q18 0 33.5 -7t29.5 -18q17 14 36 19.5t40 5.5q13 0 25.5 -3.5t23 -10.5t17 -18t6.5 -25
q0 -23 -10 -38t-26 -25t-34.5 -16.5t-36.5 -12.5q1 -15 10 -30.5t25 -15.5q19 0 36 9.5t29 23.5zM160 180q-9 9 -23 9q-12 0 -20 -8.5t-12.5 -20.5t-6 -25t-1.5 -22q0 -11 1.5 -24t6 -24.5t13 -19.5t22.5 -8q11 0 19 8q-11 14 -17.5 31t-6.5 35t7 36.5t18 32.5zM262 195
q-26 0 -35.5 -27t-9.5 -63q12 3 26 8t27 12t21.5 17t8.5 25t-12.5 21.5t-25.5 6.5z" />
    <glyph glyph-name="nonbreakingspace" unicode="&#xa0;" horiz-adv-x="200" 
 />
    <glyph glyph-name="exclamdown" unicode="&#xa1;" horiz-adv-x="155" 
d="M39 -198q6 -5 13 -8t16 -3v411l-1 3l-4 2q-2 0 -4 -2.5t-4 -4.5l-14 27q8 7 17.5 10t19.5 3q25 0 42 -16.5t17 -41.5v-351q0 -29 -20 -49t-49 -20t-50 19zM48 306q0 18 13 31t31 13q19 0 32 -12.5t13 -31.5t-13 -32t-32 -13t-31.5 13t-12.5 32z" />
    <glyph glyph-name="cent" unicode="&#xa2;" horiz-adv-x="235" 
d="M217 240q-15 -23 -35.5 -34t-44.5 -12v-102h-28v105q-43 9 -67 42t-24 75q0 21 8 38t20.5 30t29 21.5t33.5 12.5v111h28v-108q32 0 55.5 -15t23.5 -36q0 -14 -9.5 -23t-23.5 -9q-20 0 -33 15t-13 34q1 1 1 3q-11 -3 -18 -12t-11.5 -20t-6.5 -23t-2 -22q0 -34 10 -60.5
t35 -26.5q36 0 52 30l20 -14v0z" />
    <glyph glyph-name="sterling" unicode="&#xa3;" horiz-adv-x="445" 
d="M427 125q-5 -28 -8.5 -52t-13 -41.5t-29 -27.5t-57.5 -10q-13 0 -31.5 6t-38 14t-37.5 17l-30 15q-16 -27 -42 -42t-58 -15q-24 0 -44 16t-20 42q0 29 20.5 44.5t47.5 15.5q11 0 26 -2t25 -7q1 9 1.5 18.5t0.5 18.5q0 30 -1 60t-1 59h-66v29h65v31q0 33 3 72t16 72.5
t37.5 56t68.5 22.5q54 0 80 -29t26 -73q0 -8 -1.5 -15t-3.5 -15l-28 8q2 5 3 11.5t1 11.5q0 29 -16.5 48.5t-37.5 19.5q-27 0 -41.5 -15.5t-22 -38t-9 -47.5t-1.5 -45v-75h96v-29h-95q0 -14 0.5 -31.5t0.5 -37.5q0 -29 -2.5 -57.5t-10.5 -48.5q10 -4 26 -10t33.5 -11
t33.5 -9t27 -4q22 0 36 7t22.5 18.5t13 27.5t8.5 34zM133 69q-11 4 -23.5 7t-24.5 3q-14 0 -26.5 -8t-12.5 -23q0 -14 11.5 -23t24.5 -9q23 0 34.5 16.5t16.5 36.5z" />
    <glyph glyph-name="currency" unicode="&#xa4;" horiz-adv-x="497" 
d="M467 404q-31 29 -70.5 45t-82.5 16q-36 0 -65.5 -15t-52 -40t-37 -57.5t-19.5 -66.5h277l-12 -29h-267q-1 -4 -1 -12q0 -5 1 -8h259l-13 -30h-244q5 -33 19.5 -65t37 -57t52 -40.5t65.5 -15.5q66 0 121 35l15 -24q-29 -20 -65 -30t-71 -10q-46 0 -87 16t-74 44
t-55.5 66.5t-29.5 83.5h-50l12 27h35v20h-45l12 29h36q7 45 29.5 83.5t55.5 66t74.5 43t87.5 15.5q45 0 87.5 -16t76.5 -46z" />
    <glyph glyph-name="yen" unicode="&#xa5;" horiz-adv-x="526" 
d="M448 498l-136 -210h93v-29h-103v-20h103v-29h-103v-181h69v-29h-216v29h73v181h-96v29h96v9l-6 11h-90v29h74l-117 210h-71v29h215v-29h-59l110 -200l130 200h-58v29h152v-29h-60z" />
    <glyph glyph-name="section" unicode="&#xa7;" horiz-adv-x="1085" 
d="M1067 569v-245h-72v172h-42v73h114zM822 266q-8 0 -8 -8q0 -7 8 -7h145v-35h-145q-8 0 -8 -7q0 -8 8 -8h145v-35h-145q-17 0 -29.5 12.5t-12.5 30.5q0 13 8 24q-8 11 -8 25q0 17 12.5 29.5t29.5 12.5h145v-34h-145zM305 251v-35h-151v-50h-35v92q0 17 12 29.5t30 12.5
h144v-34h-144q-7 0 -7 -8v-7h151zM338 300h196v-47q0 -20 -13.5 -35t-33.5 -17l32 -35h-47l-32 35h-51v35h92q19 0 19 17v12h-127v-99h-35v134zM606 266q-8 0 -8 -8q0 -7 8 -7h144v-35h-144q-8 0 -8 -7q0 -8 8 -8h144v-35h-144q-17 0 -29.5 12.5t-12.5 30.5q0 13 8 24
q-8 11 -8 25q0 17 12.5 29.5t29.5 12.5h144v-34h-144zM854 143v-35h-99v-64h42v-35h-76v99h-60v35h193zM1000 44q16 0 28 15h-150v17q0 28 19.5 47.5t47.5 19.5h122v-35h-122q-19 0 -27 -14h149v-18q0 -27 -19.5 -47t-47.5 -20h-122v35h122zM205 94v-35h-151v-50h-36v92
q0 17 12.5 29.5t29.5 12.5h145v-35h-145q-6 0 -6 -7v-7h151zM631 9h-50q-7 23 -18 41t-31 34q-12 8 -26 14.5t-29 8.5v-98h-35v134h20q24 0 47.5 -8.5t43.5 -23.5q27 -21 44 -52v84h34v-134zM411 143v-62q0 -29 -21.5 -50.5t-50.5 -21.5h-114v62q0 29 21.5 50.5t51.5 21.5
h113zM298 108q-16 0 -27 -10.5t-11 -26.5v-27h79q15 0 26 11t11 26v27h-78zM133 569v-245h-73v172h-42v73h115zM903 569v-114q0 -27 -10.5 -51t-28 -41.5t-41.5 -28t-51 -10.5h-205v113q0 27 10.5 51t28.5 42t42.5 28.5t51.5 10.5h203zM700 496q-25 0 -42.5 -17t-17.5 -42
v-42h132q24 0 41.5 17.5t17.5 42.5v41h-131zM518 569v-114q0 -27 -10.5 -51t-28.5 -41.5t-42 -28t-51 -10.5h-204v113q0 27 10.5 51t28.5 42t42 28.5t51 10.5h204zM314 496q-25 0 -42.5 -17t-17.5 -42v-42h132q25 0 42.5 17.5t17.5 42.5v41h-132z" />
    <glyph glyph-name="dieresis" unicode="&#xa8;" horiz-adv-x="165" 
d="M72 269q0 -11 -8 -18.5t-19 -7.5t-18.5 7.5t-7.5 18.5t7.5 18.5t18.5 7.5t19 -7.5t8 -18.5zM148 269q0 -11 -8 -18.5t-19 -7.5t-18.5 7.5t-7.5 18.5t7.5 18.5t18.5 7.5t19 -7.5t8 -18.5z" />
    <glyph glyph-name="copyright" unicode="&#xa9;" horiz-adv-x="610" 
d="M18 293q0 59 22.5 111.5t61.5 91.5t91.5 61.5t111.5 22.5t111.5 -22.5t91.5 -61.5t61.5 -91.5t22.5 -111.5t-22.5 -111.5t-61.5 -91.5t-91.5 -61.5t-111.5 -22.5t-111.5 22.5t-91.5 61.5t-61.5 91.5t-22.5 111.5zM48 293q0 -53 20 -100t55 -82t82 -55t100 -20t100 20
t82 55t55 82t20 100t-20 100t-55 82t-82 55t-100 20t-100 -20t-82 -55t-55 -82t-20 -100zM465 141q-29 -36 -69.5 -56.5t-86.5 -20.5q-47 0 -85 19.5t-66 51.5t-43 74t-15 86q0 47 16.5 89t46 73.5t70 50t88.5 18.5q24 0 48 -8t42.5 -23t30.5 -36t12 -47q0 -15 -9.5 -31
t-27.5 -16q-14 0 -25 13.5t-11 26.5q0 11 7.5 17.5t17.5 6.5q8 0 14 -4t11 -10q0 18 -9 34t-23.5 28t-33 18.5t-37.5 6.5q-45 0 -76.5 -18t-52 -47.5t-30 -67t-9.5 -76.5q0 -38 9.5 -75t29.5 -66t51 -47t73 -18q35 0 69.5 21t54.5 47z" />
    <glyph glyph-name="ordfeminine" unicode="&#xaa;" 
d="M286 370q0 -25 -17.5 -41.5t-42.5 -16.5q-14 0 -26 7t-20 18q-27 -25 -61 -25q-22 0 -40.5 8.5t-32 23.5t-21 34t-7.5 40q0 22 6.5 43t18.5 37.5t30.5 26.5t42.5 10q31 0 53 -16v10h68v-179q0 -5 5 -5q8 0 12 8.5t4 16.5h28zM169 480q-5 7 -15.5 15t-19.5 8
q-42 0 -42 -89q0 -28 10.5 -49t31.5 -21q11 0 20 7.5t15 15.5v113z" />
    <glyph glyph-name="guillemotleft" unicode="&#xab;" horiz-adv-x="267" 
d="M18 258l121 122v-76l-45 -46l45 -45v-76zM128 258l121 122v-76l-45 -46l45 -45v-76z" />
    <glyph glyph-name="registered" unicode="&#xae;" horiz-adv-x="298" 
d="M18 454q0 27 10 51t28 42t42 28t51 10t51 -10t41.5 -28t28 -42t10.5 -51t-10.5 -51t-28 -42t-41.5 -28t-51 -10t-51 10t-42 28t-28 42t-10 51zM35 454q0 -24 9 -45t24 -36t36 -24t45 -9t44.5 9t36 24t24.5 36t9 45t-9 44.5t-24.5 36t-36 24.5t-44.5 9t-45 -9t-36 -24.5
t-24 -36t-9 -44.5zM235 397q-1 -14 -10 -21.5t-23 -7.5q-10 0 -19 6t-14 14l-15 26q-2 3 -4.5 8t-6 11t-6.5 10.5t-4 5.5q-7 5 -15 5v-29q2 0 4.5 0.5t4.5 0.5l2 -7q-3 -1 -11 -1v-31h18v-7h-57v7h19v35q-17 8 -28.5 23.5t-11.5 34.5q0 25 16.5 41.5t42.5 17.5q8 12 23 22
l4 -6q-8 -7 -14 -16q21 -2 34 -13.5t13 -33.5q0 -15 -8.5 -23t-21.5 -12q3 -1 7 -5q3 -3 7.5 -10.5t9.5 -16.5t9.5 -17.5t7.5 -13.5q4 -6 9.5 -11t12.5 -5t12.5 6.5t5.5 13.5zM111 531q-21 -2 -33 -16t-12 -35q0 -16 9 -29t23 -21v32q0 19 2 37t11 32zM156 495q0 30 -31 35
q-5 -9 -6 -20.5t-1 -31.5v-16q17 0 27.5 7t10.5 26z" />
    <glyph glyph-name="macron" unicode="&#xaf;" horiz-adv-x="184" 
d="M24 232v37h136v-37h-136z" />
    <glyph glyph-name="degree" unicode="&#xb0;" horiz-adv-x="238" 
d="M119 570q19 0 36.5 -7.5t30.5 -20.5t20.5 -30.5t7.5 -36.5q0 -20 -7.5 -37.5t-20.5 -30t-30.5 -20t-36.5 -7.5t-36.5 7.5t-30.5 20t-20.5 30t-7.5 37.5q0 19 7.5 36.5t20.5 30.5t30.5 20.5t36.5 7.5zM119 525q-20 0 -35 -15t-15 -35q0 -21 15 -36t35 -15t35.5 15t15.5 36
q0 20 -15.5 35t-35.5 15z" />
    <glyph glyph-name="plusminus" unicode="&#xb1;" horiz-adv-x="412" 
d="M174 310v150h64v-150h150v-63h-150v-152h-64v152h-150v63h150zM388 64v-64h-364v64h364z" />
    <glyph glyph-name="acute" unicode="&#xb4;" horiz-adv-x="175" 
d="M40 245l-16 24l111 74l16 -24z" />
    <glyph glyph-name="paragraph" unicode="&#xb6;" horiz-adv-x="472" 
d="M448 583v-23h-31q-17 0 -28.5 -11.5t-11.5 -28.5v-696h-42v725h-69v-725h-40v403h-25q-37 0 -69 14t-56 38t-38 56.5t-14 69.5t14 69.5t38 56.5t56 38t69 14h247z" />
    <glyph glyph-name="periodcentered" unicode="&#xb7;" horiz-adv-x="137" 
d="M113 186q0 -18 -13 -31t-31 -13q-19 0 -32 12.5t-13 31.5t13 32t32 13t31.5 -13t12.5 -32z" />
    <glyph glyph-name="cedilla" unicode="&#xb8;" horiz-adv-x="207" 
d="M183 -57q0 -34 -25 -55t-57 -21q-14 0 -27.5 5t-24.5 13.5t-18 21t-7 27.5q0 20 11.5 32.5t31.5 12.5q15 0 24.5 -10.5t9.5 -24.5q0 -16 -11.5 -25t-25.5 -9q14 -14 33 -14q22 0 39.5 12t17.5 36q0 27 -20.5 43t-46.5 16v28q19 0 36.5 -6.5t30.5 -18t21 -27.5t8 -36z" />
    <glyph glyph-name="ordmasculine" unicode="&#xba;" horiz-adv-x="248" 
d="M124 311q-23 0 -41.5 9.5t-31.5 25.5t-20 36.5t-7 41.5t7.5 41t20.5 36t31.5 25.5t40.5 9.5t40.5 -9.5t31.5 -25.5t20.5 -35.5t7.5 -40.5q0 -22 -7 -42.5t-20 -36.5t-31.5 -25.5t-41.5 -9.5zM195 421q0 14 -3.5 28t-10 25.5t-15.5 18.5t-21 7q-22 0 -32 -22t-10 -55
q0 -32 10 -53.5t33 -21.5q12 0 21 6.5t15 17t9.5 23.5t3.5 26z" />
    <glyph glyph-name="guillemotright" unicode="&#xbb;" horiz-adv-x="267" 
d="M18 213l45 45l-45 46v76l121 -122l-121 -121v76zM128 213l45 45l-45 46v76l121 -122l-121 -121v76z" />
    <glyph glyph-name="questiondown" unicode="&#xbf;" horiz-adv-x="371" 
d="M24 -66q0 45 12.5 74t31.5 47.5t41.5 30.5t41.5 24.5t31.5 27.5t12.5 40v53h29v-53q0 -30 -9 -50t-22.5 -35.5t-29.5 -29.5t-29.5 -30t-22.5 -37.5t-9 -53.5q0 -24 5.5 -49t18.5 -45t32.5 -33t48.5 -13q20 0 39 9t34.5 23t25 32.5t11.5 38.5q-15 2 -31.5 14t-16.5 29
q0 13 9 22t21 9q13 0 22.5 -6t15 -15.5t8 -21.5t2.5 -23q0 -32 -14 -58t-36.5 -44.5t-51.5 -28.5t-59 -10q-35 0 -64.5 12.5t-51.5 34.5t-34 51.5t-12 63.5zM160 316q0 19 13 31.5t32 12.5q18 0 31 -13t13 -31q0 -19 -12.5 -32t-31.5 -13t-32 13t-13 32z" />
    <glyph glyph-name="AE" unicode="&#xc6;" horiz-adv-x="905" 
d="M887 135q-8 -33 -25.5 -58t-42.5 -42t-55 -26t-62 -9q-34 0 -69 11.5t-63 33.5t-45.5 52t-17.5 68q0 93 78 145h-190q-14 -37 -26 -73.5t-26 -72.5q-12 -33 -26.5 -63.5t-35 -53.5t-49 -36.5t-68.5 -13.5q-28 0 -54 10t-46.5 28t-33 42.5t-12.5 53.5q0 20 7.5 40t21 36
t32 26t39.5 10q14 0 28 -6t25.5 -16.5t19 -24t7.5 -28.5t-10.5 -21.5t-23.5 -6.5q-20 0 -31 16t-11 34q0 13 9 22q-4 2 -12 2q-16 0 -29.5 -8t-23 -20t-14.5 -27.5t-5 -30.5q0 -24 11 -43.5t29 -33t40.5 -20.5t44.5 -7q41 0 69 24t46.5 59.5t31.5 74.5t24 69q22 59 47 116.5
t58 111.5q19 30 46 50t57.5 31.5t62.5 16.5t62 5q27 0 54 -5.5t48.5 -19t35.5 -35t14 -53.5q0 -11 -5.5 -20.5t-18.5 -9.5q-20 0 -35.5 14t-15.5 34q0 13 7 22t20 10q-14 17 -35 25.5t-43 8.5q-43 0 -66.5 -29.5t-23.5 -70.5q0 -27 10 -48t27 -34.5t39 -20.5t47 -7
q12 0 24.5 0.5t24.5 0.5v-29h-31q-34 0 -64.5 -9t-53.5 -27t-36.5 -45.5t-13.5 -65.5q0 -27 7 -52.5t21.5 -44.5t36.5 -30.5t52 -11.5q57 0 100 28t57 85zM610 339q-68 39 -68 116q0 25 14 49t33 39q-37 -6 -65 -26t-50 -48t-38.5 -62t-29.5 -68h204z" />
    <glyph glyph-name="Eth" unicode="&#xd0;" horiz-adv-x="627" 
d="M609 293q0 -61 -22 -114.5t-61 -93t-92 -62.5t-114 -23h-216v29h73v126q-35 10 -64 30t-50 47.5t-33 61t-12 69.5q0 49 17.5 89.5t48 69t72 44.5t89.5 16q18 29 39.5 55t47.5 49l19 -21q-18 -18 -32 -39t-26 -44q32 0 63.5 -4t61.5 -13q43 -14 78.5 -41.5t60.5 -64.5
t38.5 -80t13.5 -86zM251 243v-69q27 1 53.5 9t49.5 24l16 -23q-55 -37 -119 -39v-116h47q53 0 96.5 22t74 59t47.5 84t17 97t-17 97t-48 84t-74.5 59t-95.5 22h-18q-19 -44 -24 -90t-5 -94v-97h61v-29h-61zM229 552q-39 -2 -72.5 -17t-58 -40t-38.5 -58.5t-14 -73.5
q0 -31 10 -58.5t27 -51t41 -41t53 -27.5v58h-63v29h63q0 38 1 73.5t6.5 69.5t16 68t28.5 69z" />
    <glyph glyph-name="multiply" unicode="&#xd7;" horiz-adv-x="365" 
d="M137 277l-119 121l45 45l119 -120l120 120l45 -45l-119 -121l119 -118l-45 -46l-120 120l-119 -120l-45 46z" />
    <glyph glyph-name="Oslash" unicode="&#xd8;" horiz-adv-x="578" 
d="M560 292q0 -57 -20 -111t-55.5 -95.5t-85.5 -66.5t-110 -25q-56 0 -105 22.5t-86 64.5l-38 -38l-21 20l41 40q-30 42 -46 90t-16 99q0 57 19.5 111t55.5 96t86 67t110 25q57 0 105.5 -22.5t85.5 -64.5l38 38l20 -21l-40 -40q29 -41 45.5 -89.5t16.5 -99.5zM138 121
q27 -40 63 -69.5t88 -29.5q49 0 85.5 26.5t60.5 67t36 87.5t12 89q0 76 -30 144zM439 463q-10 20 -26 38.5t-36 32t-42.5 21.5t-45.5 8q-50 0 -86.5 -27t-60.5 -67.5t-36 -88t-12 -89.5q0 -37 7 -73.5t23 -69.5z" />
    <glyph glyph-name="germandbls" unicode="&#xdf;" horiz-adv-x="331" 
d="M313 63q0 -15 -8 -27t-20.5 -20t-27.5 -12t-28 -4q-11 0 -26 4t-29 12t-24 20t-10 29q0 31 28 31q19 0 32.5 -14.5t13.5 -32.5q0 -10 -4 -18q8 -2 11 -2q9 0 22 2.5t13 13.5q0 9 -17.5 22t-38.5 28.5t-38.5 33.5t-17.5 36q0 10 5 18t12.5 15t15 13.5t13.5 12.5
q12 13 22.5 25t18.5 25.5t12.5 31t4.5 42.5q0 40 -9.5 77t-27 65.5t-41 45.5t-50.5 17v-680l-69 -20v343h-33v29h33v287q0 32 21.5 51t52.5 19q37 0 65.5 -20.5t48.5 -53.5t30.5 -75.5t10.5 -86.5q0 -25 -7 -46t-18.5 -39t-25.5 -34l-28 -32q-4 -4 -4 -11q6 -14 25 -26.5
t39 -26.5t36 -30.5t16 -37.5z" />
    <glyph glyph-name="ae" unicode="&#xe6;" horiz-adv-x="397" 
d="M379 45q-16 -20 -40 -32t-49 -12q-55 0 -92 40q-14 -17 -35.5 -28.5t-43.5 -11.5q-24 0 -42.5 9.5t-31.5 25t-20 36t-7 42.5q0 21 7 40.5t20 35.5t31.5 25.5t40.5 9.5q14 0 27.5 -4.5t24.5 -12.5v11h69v-5q13 6 27 8.5t28 2.5q11 0 23.5 -3t23 -10.5t17.5 -19t7 -27.5
q0 -21 -10.5 -36t-26.5 -25.5t-35 -17t-36 -10.5q3 -13 15 -29.5t29 -16.5q18 0 31.5 9.5t24.5 23.5zM169 169q-8 11 -15.5 17.5t-19.5 6.5q-23 0 -32.5 -25t-9.5 -56q0 -33 9.5 -55.5t32.5 -22.5q11 0 20 7.5t15 15.5v112zM304 195q-15 0 -25 -9.5t-16 -23t-8.5 -29.5
t-2.5 -28q12 3 26 8t27 12t21.5 17t8.5 25q0 14 -9.5 21t-21.5 7z" />
    <glyph glyph-name="eth" unicode="&#xf0;" horiz-adv-x="308" 
d="M251 519v-404q0 -53 -32.5 -83.5t-84.5 -30.5q-24 0 -45.5 8.5t-37 23.5t-24.5 35.5t-9 44.5q0 26 10 47t27.5 35.5t40 22t46.5 7.5q11 0 21 -2.5t20 -7.5v262l-23 -13l-13 21l36 22v46q-18 0 -30 -12l-20 21q20 20 48 20q20 0 37 -10.5t26 -27.5l33 19l13 -21zM183 182
q-8 5 -16 9t-22 4q-26 0 -36 -23.5t-10 -59.5q0 -41 10.5 -61.5t35.5 -20.5q14 0 26 11t12 30v111z" />
    <glyph glyph-name="divide" unicode="&#xf7;" horiz-adv-x="400" 
d="M382 310v-63h-364v63h364zM201 419q17 0 29 -12.5t12 -29.5t-12 -30t-29 -13q-18 0 -31 13t-13 30t13 29.5t31 12.5zM201 222q17 0 29 -12.5t12 -29.5q0 -18 -12 -31t-29 -13q-18 0 -31 13t-13 31q0 17 13 29.5t31 12.5z" />
    <glyph glyph-name="oslash" unicode="&#xf8;" horiz-adv-x="236" 
d="M218 113q0 -21 -7 -41.5t-20.5 -36t-32 -25.5t-40.5 -10q-16 0 -35 7l-13 -26h-31l20 41q-20 17 -30.5 41t-10.5 50q0 21 7 41.5t20.5 36t31.5 25t41 9.5q22 0 38 -8l14 27h30l-21 -42q19 -17 29 -40.5t10 -48.5zM188 110q0 17 -5.5 34.5t-17.5 29.5l-57 -117
q11 -20 32 -20q12 0 21 7.5t15 19t9 24t3 22.5zM137 189q-12 0 -20 -8t-12.5 -19.5t-6 -24t-1.5 -21.5l1 -17l44 90h-5z" />
    <glyph glyph-name="thorn" unicode="&#xfe;" horiz-adv-x="250" 
d="M132 1q-22 0 -45 13v-238h-69v686h69v-250q11 6 21.5 9.5t24.5 3.5q22 0 40 -9.5t31 -24.5t20.5 -34.5t7.5 -40.5q0 -22 -6.5 -43t-19.5 -37t-31.5 -25.5t-42.5 -9.5zM158 104q0 43 -9 65.5t-37 22.5q-8 -2 -14.5 -7t-10.5 -10v-125q12 -17 30 -17q20 0 30.5 21.5
t10.5 49.5z" />
    <glyph glyph-name="Euro" unicode="&#x20ac;" horiz-adv-x="497" 
d="M467 404q-31 29 -70.5 45t-82.5 16q-36 0 -65.5 -15t-52 -40t-37 -57.5t-19.5 -66.5h277l-12 -29h-267q-1 -4 -1 -12q0 -5 1 -8h259l-13 -30h-244q5 -33 19.5 -65t37 -57t52 -40.5t65.5 -15.5q66 0 121 35l15 -24q-29 -20 -65 -30t-71 -10q-46 0 -87 16t-74 44
t-55.5 66.5t-29.5 83.5h-50l12 27h35v20h-45l12 29h36q7 45 29.5 83.5t55.5 66t74.5 43t87.5 15.5q45 0 87.5 -16t76.5 -46z" />
    <glyph glyph-name="ellipsis" unicode="&#x2026;" horiz-adv-x="385" 
d="M107 36q0 -18 -13 -30.5t-31 -12.5t-31.5 12t-13.5 31t13 32t32 13t31.5 -13t12.5 -32zM237 36q0 -18 -13 -30.5t-31 -12.5t-31.5 12t-13.5 31t13 32t32 13t31.5 -13t12.5 -32zM367 36q0 -18 -13 -30.5t-31 -12.5t-31.5 12t-13.5 31t13 32t32 13t31.5 -13t12.5 -32z" />
    <glyph glyph-name="logicalnot" unicode="&#xac;" horiz-adv-x="388" 
d="M309 248h-291v61h352v-162h-61v101z" />
    <glyph glyph-name="mu" unicode="&#xb5;" horiz-adv-x="342" 
d="M262 72q0 -8 0.5 -16.5t2.5 -16.5t6.5 -13t12.5 -5q12 0 16.5 14t6.5 23h11q-3 -26 -14 -47t-41 -21q-23 0 -35 16.5t-14 40.5q-18 -20 -44.5 -38.5t-56.5 -18.5q-14 0 -27 4.5t-23 11.5q0 -15 7 -40q2 -12 4 -19.5t2 -12.5q0 -11 -6.5 -22t-19.5 -11q-14 0 -20 12t-6 23
q0 9 4 20q7 26 10 47.5t3 48.5v211h48v-168q0 -32 8.5 -50.5t39.5 -18.5q21 0 42 11.5t35 26.5v199h48v-191z" />
    <glyph glyph-name="mu" unicode="&#x3bc;" horiz-adv-x="342" 
d="M262 72q0 -8 0.5 -16.5t2.5 -16.5t6.5 -13t12.5 -5q12 0 16.5 14t6.5 23h11q-3 -26 -14 -47t-41 -21q-23 0 -35 16.5t-14 40.5q-18 -20 -44.5 -38.5t-56.5 -18.5q-14 0 -27 4.5t-23 11.5q0 -15 7 -40q2 -12 4 -19.5t2 -12.5q0 -11 -6.5 -22t-19.5 -11q-14 0 -20 12t-6 23
q0 9 4 20q7 26 10 47.5t3 48.5v211h48v-168q0 -32 8.5 -50.5t39.5 -18.5q21 0 42 11.5t35 26.5v199h48v-191z" />
    <glyph glyph-name="at" unicode="@" horiz-adv-x="552" 
d="M449 79q-42 -27 -90 -42t-98 -15q-53 0 -96.5 20.5t-75 56t-48.5 82t-17 97.5q0 58 23.5 109t63 88.5t91.5 59t110 21.5q45 0 84.5 -14.5t68.5 -40.5t46 -63t17 -83q0 -45 -14 -82t-35.5 -63.5t-47 -41t-47.5 -14.5q-23 0 -41.5 13.5t-28.5 34.5q-23 -21 -45.5 -32.5
t-39.5 -11.5q-26 0 -43 19.5t-17 45.5q0 41 15 73.5t37.5 55.5t48.5 35.5t49 12.5t37 -12.5t23 -33.5l13 12q5 -3 9 -6t9 -5l-41 -134q0 -3 -0.5 -6.5t-0.5 -5.5q0 -9 6.5 -18.5t17.5 -9.5q12 0 27 11.5t28.5 30.5t23 44.5t9.5 54.5q0 43 -16 77.5t-43.5 58.5t-64 37
t-77.5 13q-46 0 -84 -17.5t-65.5 -47t-43 -69t-15.5 -83.5q0 -49 21.5 -90t56 -71t78.5 -46.5t89 -16.5q31 0 63 6t61 19zM255 206q16 0 33 10.5t30 27.5t21.5 38.5t8.5 43.5q0 7 -1.5 15.5t-5 16t-10.5 12.5t-18 5q-12 0 -27.5 -13t-30 -32.5t-24 -41.5t-9.5 -40
q0 -20 9 -31t24 -11z" />
    <glyph glyph-name="quoteright" unicode="&#x2019;" horiz-adv-x="124" 
d="M18 435q14 20 21.5 38t10.5 29q-14 4 -23 16.5t-9 28.5q0 19 12.5 31.5t31.5 12.5t31.5 -13t12.5 -32q0 -23 -8 -43.5t-18.5 -37t-21.5 -29t-17 -18.5z" />
    <glyph glyph-name="quotesinglbase" unicode="&#x201a;" horiz-adv-x="124" 
d="M18 -65q14 20 21.5 38t10.5 29q-14 4 -23 16.5t-9 28.5q0 19 12.5 31.5t31.5 12.5t31.5 -13t12.5 -32q0 -23 -8 -43.5t-18.5 -37t-21.5 -29t-17 -18.5z" />
    <glyph glyph-name="quotedblright" unicode="&#x201d;" horiz-adv-x="228" 
d="M18 435q14 20 21.5 38t10.5 29q-14 4 -23 16.5t-9 28.5q0 19 12.5 31.5t31.5 12.5t31.5 -13t12.5 -32q0 -23 -8 -43.5t-18.5 -37t-21.5 -29t-17 -18.5zM122 435q14 20 21.5 38t10.5 29q-14 4 -23 16.5t-9 28.5q0 19 12.5 31.5t31.5 12.5t31.5 -13t12.5 -32
q0 -23 -8 -43.5t-18.5 -37t-21.5 -29t-17 -18.5z" />
    <glyph glyph-name="quotedblbase" unicode="&#x201e;" horiz-adv-x="228" 
d="M18 -63q14 20 21.5 38t10.5 29q-14 4 -23 16.5t-9 28.5q0 19 12.5 31.5t31.5 12.5t31.5 -13t12.5 -32q0 -23 -8 -43.5t-18.5 -37t-21.5 -29t-17 -18.5zM122 -63q14 20 21.5 38t10.5 29q-14 4 -23 16.5t-9 28.5q0 19 12.5 31.5t31.5 12.5t31.5 -13t12.5 -32
q0 -23 -8 -43.5t-18.5 -37t-21.5 -29t-17 -18.5z" />
    <glyph glyph-name="quoteleft" unicode="&#x2018;" horiz-adv-x="124" 
d="M106 574q-14 -20 -21.5 -38t-10.5 -29q14 -4 23 -16.5t9 -28.5q0 -19 -12.5 -31.5t-31.5 -12.5t-31.5 13t-12.5 32q0 22 8 43t18.5 37.5t21.5 29t17 18.5z" />
    <glyph glyph-name="quotedblleft" unicode="&#x201c;" horiz-adv-x="228" 
d="M210 574q-14 -20 -21.5 -38t-10.5 -29q14 -4 23 -16.5t9 -28.5q0 -19 -12.5 -31.5t-31.5 -12.5t-31.5 13t-12.5 32q0 22 8 43t18.5 37.5t21.5 29t17 18.5zM106 574q-14 -20 -21.5 -38t-10.5 -29q14 -4 23 -16.5t9 -28.5q0 -19 -12.5 -31.5t-31.5 -12.5t-31.5 13t-12.5 32
q0 22 8 43t18.5 37.5t21.5 29t17 18.5z" />
    <glyph glyph-name="trademark" unicode="&#x2122;" horiz-adv-x="494" 
d="M170 581q-8 0 -16 1t-16 1v-190h27v-11h-81v11h27v193q-5 0 -9 0.5t-9 0.5q-22 0 -43.5 -11t-21.5 -37q0 -14 8.5 -25.5t24.5 -11.5q4 0 6 1q-12 4 -12 16q0 11 11 11q7 0 12 -6t5 -13q0 -11 -7.5 -15.5t-17.5 -4.5q-17 0 -28.5 15t-11.5 31q0 32 25 48.5t55 16.5h30
q9 0 18 -0.5t19 -0.5q11 0 22 3t11 17q0 1 -0.5 2.5t-0.5 3.5l11 1v-9q0 -21 -8.5 -29.5t-29.5 -8.5zM396 382v11h27v188l-70 -104q7 -13 12.5 -29.5t5.5 -31.5q0 -13 -6.5 -26t-22.5 -13q-15 0 -23 11t-8 25t5.5 26.5t13.5 23.5l-71 114v-184h25v-11h-63v11h27v195h-27v11
h57l69 -111l75 111h54v-11h-26v-195h26v-11h-80zM354 404q0 12 -6 25t-12 24q-5 -8 -9.5 -18.5t-4.5 -21.5q0 -9 5 -17.5t15 -8.5q8 0 10 6t2 11z" />
    <glyph glyph-name="Agrave" unicode="&#xc0;" horiz-adv-x="745" 
d="M512 0v29h73v87q0 72 -35 128t-106 79q-27 -86 -48.5 -172.5t-53.5 -171.5q33 -12 68 -12v-29q-21 2 -40 5t-39 9q-14 -31 -31 -59.5t-40 -50.5t-52 -35t-66 -13q-24 0 -46 7.5t-39.5 21.5t-28 34t-10.5 45q0 17 6 32.5t17 27.5t26 19t33 7q11 0 23 -4t22 -11.5
t16.5 -17.5t6.5 -22q0 -13 -9 -22.5t-22 -9.5q-21 0 -33 19t-12 38q-21 -4 -33 -19.5t-12 -36.5q0 -18 8 -32.5t20.5 -25t29 -16t33.5 -5.5q33 0 58.5 12t45.5 31.5t35.5 45t27.5 52.5q-62 31 -94.5 85t-32.5 122q0 44 18.5 79.5t49 60t69 38t79.5 13.5q8 0 15.5 -1t15.5 -3
q14 47 37.5 90.5t55.5 79.5q24 28 55 41t67 13h77v-29h-59v-524h69v-29h-215zM416 330q-8 2 -16.5 2.5t-16.5 0.5q-37 0 -69 -13t-56 -35.5t-37.5 -54.5t-13.5 -69q0 -27 8 -52.5t22.5 -47.5t34.5 -40t44 -30q33 83 53 168.5t47 170.5zM584 541q-26 -12 -46.5 -33.5
t-36.5 -48t-27.5 -55t-20.5 -54.5q42 -13 75.5 -40.5t55.5 -65.5v297zM616 602l-111 74l16 24l111 -74z" />
    <glyph glyph-name="Aacute" unicode="&#xc1;" horiz-adv-x="745" 
d="M512 0v29h73v87q0 72 -35 128t-106 79q-27 -86 -48.5 -172.5t-53.5 -171.5q33 -12 68 -12v-29q-21 2 -40 5t-39 9q-14 -31 -31 -59.5t-40 -50.5t-52 -35t-66 -13q-24 0 -46 7.5t-39.5 21.5t-28 34t-10.5 45q0 17 6 32.5t17 27.5t26 19t33 7q11 0 23 -4t22 -11.5
t16.5 -17.5t6.5 -22q0 -13 -9 -22.5t-22 -9.5q-21 0 -33 19t-12 38q-21 -4 -33 -19.5t-12 -36.5q0 -18 8 -32.5t20.5 -25t29 -16t33.5 -5.5q33 0 58.5 12t45.5 31.5t35.5 45t27.5 52.5q-62 31 -94.5 85t-32.5 122q0 44 18.5 79.5t49 60t69 38t79.5 13.5q8 0 15.5 -1t15.5 -3
q14 47 37.5 90.5t55.5 79.5q24 28 55 41t67 13h77v-29h-59v-524h69v-29h-215zM416 330q-8 2 -16.5 2.5t-16.5 0.5q-37 0 -69 -13t-56 -35.5t-37.5 -54.5t-13.5 -69q0 -27 8 -52.5t22.5 -47.5t34.5 -40t44 -30q33 83 53 168.5t47 170.5zM584 541q-26 -12 -46.5 -33.5
t-36.5 -48t-27.5 -55t-20.5 -54.5q42 -13 75.5 -40.5t55.5 -65.5v297zM553 602l-16 24l111 74l16 -24z" />
    <glyph glyph-name="Acircumflex" unicode="&#xc2;" horiz-adv-x="745" 
d="M512 0v29h73v87q0 72 -35 128t-106 79q-27 -86 -48.5 -172.5t-53.5 -171.5q33 -12 68 -12v-29q-21 2 -40 5t-39 9q-14 -31 -31 -59.5t-40 -50.5t-52 -35t-66 -13q-24 0 -46 7.5t-39.5 21.5t-28 34t-10.5 45q0 17 6 32.5t17 27.5t26 19t33 7q11 0 23 -4t22 -11.5
t16.5 -17.5t6.5 -22q0 -13 -9 -22.5t-22 -9.5q-21 0 -33 19t-12 38q-21 -4 -33 -19.5t-12 -36.5q0 -18 8 -32.5t20.5 -25t29 -16t33.5 -5.5q33 0 58.5 12t45.5 31.5t35.5 45t27.5 52.5q-62 31 -94.5 85t-32.5 122q0 44 18.5 79.5t49 60t69 38t79.5 13.5q8 0 15.5 -1t15.5 -3
q14 47 37.5 90.5t55.5 79.5q24 28 55 41t67 13h77v-29h-59v-524h69v-29h-215zM416 330q-8 2 -16.5 2.5t-16.5 0.5q-37 0 -69 -13t-56 -35.5t-37.5 -54.5t-13.5 -69q0 -27 8 -52.5t22.5 -47.5t34.5 -40t44 -30q33 83 53 168.5t47 170.5zM584 541q-26 -12 -46.5 -33.5
t-36.5 -48t-27.5 -55t-20.5 -54.5q42 -13 75.5 -40.5t55.5 -65.5v297zM492 601l93 80l92 -80h-43l-49 42l-49 -42h-44z" />
    <glyph glyph-name="Atilde" unicode="&#xc3;" horiz-adv-x="745" 
d="M512 0v29h73v87q0 72 -35 128t-106 79q-27 -86 -48.5 -172.5t-53.5 -171.5q33 -12 68 -12v-29q-21 2 -40 5t-39 9q-14 -31 -31 -59.5t-40 -50.5t-52 -35t-66 -13q-24 0 -46 7.5t-39.5 21.5t-28 34t-10.5 45q0 17 6 32.5t17 27.5t26 19t33 7q11 0 23 -4t22 -11.5
t16.5 -17.5t6.5 -22q0 -13 -9 -22.5t-22 -9.5q-21 0 -33 19t-12 38q-21 -4 -33 -19.5t-12 -36.5q0 -18 8 -32.5t20.5 -25t29 -16t33.5 -5.5q33 0 58.5 12t45.5 31.5t35.5 45t27.5 52.5q-62 31 -94.5 85t-32.5 122q0 44 18.5 79.5t49 60t69 38t79.5 13.5q8 0 15.5 -1t15.5 -3
q14 47 37.5 90.5t55.5 79.5q24 28 55 41t67 13h77v-29h-59v-524h69v-29h-215zM416 330q-8 2 -16.5 2.5t-16.5 0.5q-37 0 -69 -13t-56 -35.5t-37.5 -54.5t-13.5 -69q0 -27 8 -52.5t22.5 -47.5t34.5 -40t44 -30q33 83 53 168.5t47 170.5zM584 541q-26 -12 -46.5 -33.5
t-36.5 -48t-27.5 -55t-20.5 -54.5q42 -13 75.5 -40.5t55.5 -65.5v297zM679 644q-7 -18 -17.5 -31t-32.5 -13q-12 0 -26.5 5.5t-24.5 11.5q-3 0 -17.5 9t-31.5 9q-5 0 -12 -4q-4 -5 -6 -10.5t-4 -10.5l-27 11q7 17 17.5 30t31.5 13q14 0 27 -5.5t26 -12t24.5 -12t22.5 -5.5
t15.5 8t7.5 17l27 -10v0z" />
    <glyph glyph-name="Adieresis" unicode="&#xc4;" horiz-adv-x="745" 
d="M512 0v29h73v87q0 72 -35 128t-106 79q-27 -86 -48.5 -172.5t-53.5 -171.5q33 -12 68 -12v-29q-21 2 -40 5t-39 9q-14 -31 -31 -59.5t-40 -50.5t-52 -35t-66 -13q-24 0 -46 7.5t-39.5 21.5t-28 34t-10.5 45q0 17 6 32.5t17 27.5t26 19t33 7q11 0 23 -4t22 -11.5
t16.5 -17.5t6.5 -22q0 -13 -9 -22.5t-22 -9.5q-21 0 -33 19t-12 38q-21 -4 -33 -19.5t-12 -36.5q0 -18 8 -32.5t20.5 -25t29 -16t33.5 -5.5q33 0 58.5 12t45.5 31.5t35.5 45t27.5 52.5q-62 31 -94.5 85t-32.5 122q0 44 18.5 79.5t49 60t69 38t79.5 13.5q8 0 15.5 -1t15.5 -3
q14 47 37.5 90.5t55.5 79.5q24 28 55 41t67 13h77v-29h-59v-524h69v-29h-215zM416 330q-8 2 -16.5 2.5t-16.5 0.5q-37 0 -69 -13t-56 -35.5t-37.5 -54.5t-13.5 -69q0 -27 8 -52.5t22.5 -47.5t34.5 -40t44 -30q33 83 53 168.5t47 170.5zM584 541q-26 -12 -46.5 -33.5
t-36.5 -48t-27.5 -55t-20.5 -54.5q42 -13 75.5 -40.5t55.5 -65.5v297zM573 628q0 -11 -8 -18.5t-19 -7.5t-18.5 7.5t-7.5 18.5t7.5 18.5t18.5 7.5t19 -7.5t8 -18.5zM649 628q0 -11 -8 -18.5t-19 -7.5t-18.5 7.5t-7.5 18.5t7.5 18.5t18.5 7.5t19 -7.5t8 -18.5z" />
    <glyph glyph-name="Aring" unicode="&#xc5;" horiz-adv-x="745" 
d="M646 630q0 -15 -11 -25.5t-26 -10.5t-25.5 10.5t-10.5 25.5t10.5 26t25.5 11t26 -11t11 -26zM626 631q0 16 -17 16t-17 -17q0 -7 5.5 -12t12.5 -5t11.5 5t4.5 13zM512 0v29h73v87q0 72 -35 128t-106 79q-27 -86 -48.5 -172.5t-53.5 -171.5q33 -12 68 -12v-29q-21 2 -40 5
t-39 9q-14 -31 -31 -59.5t-40 -50.5t-52 -35t-66 -13q-24 0 -46 7.5t-39.5 21.5t-28 34t-10.5 45q0 17 6 32.5t17 27.5t26 19t33 7q11 0 23 -4t22 -11.5t16.5 -17.5t6.5 -22q0 -13 -9 -22.5t-22 -9.5q-21 0 -33 19t-12 38q-21 -4 -33 -19.5t-12 -36.5q0 -18 8 -32.5
t20.5 -25t29 -16t33.5 -5.5q33 0 58.5 12t45.5 31.5t35.5 45t27.5 52.5q-62 31 -94.5 85t-32.5 122q0 44 18.5 79.5t49 60t69 38t79.5 13.5q8 0 15.5 -1t15.5 -3q14 47 37.5 90.5t55.5 79.5q24 28 55 41t67 13h77v-29h-59v-524h69v-29h-215zM416 330q-8 2 -16.5 2.5
t-16.5 0.5q-37 0 -69 -13t-56 -35.5t-37.5 -54.5t-13.5 -69q0 -27 8 -52.5t22.5 -47.5t34.5 -40t44 -30q33 83 53 168.5t47 170.5zM584 541q-26 -12 -46.5 -33.5t-36.5 -48t-27.5 -55t-20.5 -54.5q42 -13 75.5 -40.5t55.5 -65.5v297z" />
    <glyph glyph-name="Ccedilla" unicode="&#xc7;" horiz-adv-x="496" 
d="M479 97q-36 -45 -87 -71t-109 -26q-59 0 -107.5 24.5t-83.5 65t-54 93t-19 108.5q0 60 21 112.5t58 92.5t88 63t112 23q30 0 60 -10t54 -29t39 -45t15 -59q0 -10 -3 -20.5t-9 -19.5t-15 -14.5t-20 -5.5q-18 0 -31.5 17t-13.5 34q0 13 9 21.5t22 8.5q10 0 18 -5t14 -13
q0 23 -12 43t-30.5 35t-41.5 23.5t-46 8.5q-56 0 -96.5 -22.5t-66 -60t-37.5 -85t-12 -96.5q0 -48 12 -94t37 -83t64 -59.5t92 -22.5q22 0 44 7.5t43 19.5t39 27.5t31 31.5l22 -18v0zM311 -76q0 -34 -25 -55t-57 -21q-14 0 -27.5 5t-24.5 13.5t-18 21t-7 27.5
q0 20 11.5 32.5t31.5 12.5q15 0 24.5 -10.5t9.5 -24.5q0 -16 -11.5 -25t-25.5 -9q14 -14 33 -14q22 0 39.5 12t17.5 36q0 27 -20.5 43t-46.5 16v28q19 0 36.5 -6.5t30.5 -18t21 -27.5t8 -36z" />
    <glyph glyph-name="Egrave" unicode="&#xc8;" horiz-adv-x="416" 
d="M398 135q-8 -33 -25.5 -58t-42.5 -42t-55 -26t-62 -9q-36 0 -71 12t-62.5 34.5t-44.5 53.5t-17 70q0 56 34 98.5t85 62.5q-35 16 -59.5 46.5t-24.5 70.5q0 30 13 54.5t34 42t48 27t55 9.5q25 0 49.5 -7t43.5 -21t31 -35t12 -49q0 -14 -7.5 -22.5t-21.5 -8.5
q-20 0 -32.5 17t-12.5 35q0 27 26 29q-14 17 -35.5 25.5t-43.5 8.5q-23 0 -39 -8.5t-26.5 -22.5t-15.5 -32.5t-5 -38.5q0 -18 6.5 -36t18 -33t27 -25t34.5 -12q11 -2 22.5 -2h23.5h18t19 1v-29q-39 0 -58 -1t-34 -3q-25 -4 -44.5 -18t-33.5 -34t-21.5 -44t-7.5 -47
q0 -27 7 -52t21.5 -44.5t36.5 -31t52 -11.5q57 0 100 28t57 85l28 -7v0zM255 592l-111 74l16 24l111 -74z" />
    <glyph glyph-name="Eacute" unicode="&#xc9;" horiz-adv-x="416" 
d="M398 135q-8 -33 -25.5 -58t-42.5 -42t-55 -26t-62 -9q-36 0 -71 12t-62.5 34.5t-44.5 53.5t-17 70q0 56 34 98.5t85 62.5q-35 16 -59.5 46.5t-24.5 70.5q0 30 13 54.5t34 42t48 27t55 9.5q25 0 49.5 -7t43.5 -21t31 -35t12 -49q0 -14 -7.5 -22.5t-21.5 -8.5
q-20 0 -32.5 17t-12.5 35q0 27 26 29q-14 17 -35.5 25.5t-43.5 8.5q-23 0 -39 -8.5t-26.5 -22.5t-15.5 -32.5t-5 -38.5q0 -18 6.5 -36t18 -33t27 -25t34.5 -12q11 -2 22.5 -2h23.5h18t19 1v-29q-39 0 -58 -1t-34 -3q-25 -4 -44.5 -18t-33.5 -34t-21.5 -44t-7.5 -47
q0 -27 7 -52t21.5 -44.5t36.5 -31t52 -11.5q57 0 100 28t57 85l28 -7v0zM160 602l-16 24l111 74l16 -24z" />
    <glyph glyph-name="Ecircumflex" unicode="&#xca;" horiz-adv-x="416" 
d="M398 135q-8 -33 -25.5 -58t-42.5 -42t-55 -26t-62 -9q-36 0 -71 12t-62.5 34.5t-44.5 53.5t-17 70q0 56 34 98.5t85 62.5q-35 16 -59.5 46.5t-24.5 70.5q0 30 13 54.5t34 42t48 27t55 9.5q25 0 49.5 -7t43.5 -21t31 -35t12 -49q0 -14 -7.5 -22.5t-21.5 -8.5
q-20 0 -32.5 17t-12.5 35q0 27 26 29q-14 17 -35.5 25.5t-43.5 8.5q-23 0 -39 -8.5t-26.5 -22.5t-15.5 -32.5t-5 -38.5q0 -18 6.5 -36t18 -33t27 -25t34.5 -12q11 -2 22.5 -2h23.5h18t19 1v-29q-39 0 -58 -1t-34 -3q-25 -4 -44.5 -18t-33.5 -34t-21.5 -44t-7.5 -47
q0 -27 7 -52t21.5 -44.5t36.5 -31t52 -11.5q57 0 100 28t57 85l28 -7v0zM115 601l93 80l92 -80h-43l-49 42l-49 -42h-44z" />
    <glyph glyph-name="Edieresis" unicode="&#xcb;" horiz-adv-x="416" 
d="M398 135q-8 -33 -25.5 -58t-42.5 -42t-55 -26t-62 -9q-36 0 -71 12t-62.5 34.5t-44.5 53.5t-17 70q0 56 34 98.5t85 62.5q-35 16 -59.5 46.5t-24.5 70.5q0 30 13 54.5t34 42t48 27t55 9.5q25 0 49.5 -7t43.5 -21t31 -35t12 -49q0 -14 -7.5 -22.5t-21.5 -8.5
q-20 0 -32.5 17t-12.5 35q0 27 26 29q-14 17 -35.5 25.5t-43.5 8.5q-23 0 -39 -8.5t-26.5 -22.5t-15.5 -32.5t-5 -38.5q0 -18 6.5 -36t18 -33t27 -25t34.5 -12q11 -2 22.5 -2h23.5h18t19 1v-29q-39 0 -58 -1t-34 -3q-25 -4 -44.5 -18t-33.5 -34t-21.5 -44t-7.5 -47
q0 -27 7 -52t21.5 -44.5t36.5 -31t52 -11.5q57 0 100 28t57 85l28 -7v0zM197 626q0 -11 -8 -18.5t-19 -7.5t-18.5 7.5t-7.5 18.5t7.5 18.5t18.5 7.5t19 -7.5t8 -18.5zM273 626q0 -11 -8 -18.5t-19 -7.5t-18.5 7.5t-7.5 18.5t7.5 18.5t18.5 7.5t19 -7.5t8 -18.5z" />
    <glyph glyph-name="Igrave" unicode="&#xcc;" horiz-adv-x="252" 
d="M18 0v29h72v524h-72v29h216v-29h-69v-524h69v-29h-216zM173 602l-111 74l16 24l111 -74z" />
    <glyph glyph-name="Iacute" unicode="&#xcd;" horiz-adv-x="252" 
d="M18 0v29h72v524h-72v29h216v-29h-69v-524h69v-29h-216zM78 602l-16 24l111 74l16 -24z" />
    <glyph glyph-name="Icircumflex" unicode="&#xce;" horiz-adv-x="252" 
d="M18 0v29h72v524h-72v29h216v-29h-69v-524h69v-29h-216zM33 601l93 80l92 -80h-43l-49 42l-49 -42h-44z" />
    <glyph glyph-name="Idieresis" unicode="&#xcf;" horiz-adv-x="252" 
d="M18 0v29h72v524h-72v29h216v-29h-69v-524h69v-29h-216zM115 626q0 -11 -8 -18.5t-19 -7.5t-18.5 7.5t-7.5 18.5t7.5 18.5t18.5 7.5t19 -7.5t8 -18.5zM191 626q0 -11 -8 -18.5t-19 -7.5t-18.5 7.5t-7.5 18.5t7.5 18.5t18.5 7.5t19 -7.5t8 -18.5z" />
    <glyph glyph-name="Ntilde" unicode="&#xd1;" horiz-adv-x="879" 
d="M861 648q0 -30 -22 -46.5t-50 -16.5q-16 0 -33.5 14.5t-17.5 31.5q0 12 9.5 21t21.5 9q15 0 30.5 -12t19.5 -27q13 12 13 30q0 22 -19 33.5t-38 11.5q-38 0 -59 -23.5t-31 -58t-12 -72.5t-2 -66v-478h-23l-269 492q0 -44 1 -88t1 -89q0 -54 -3 -105q-3 -43 -18.5 -83.5
t-42.5 -72t-64 -51t-83 -19.5q-30 0 -57.5 9t-48.5 26t-33.5 42t-12.5 57q0 45 30 75t75 30q37 0 59 -23.5t22 -59.5q0 -20 -11 -34t-31 -14t-32 16t-12 33q0 14 7.5 22.5t21.5 8.5q13 0 23 -8q-14 32 -51 32q-15 0 -28 -7t-22.5 -18.5t-15.5 -25.5t-6 -27q0 -26 10.5 -45.5
t27.5 -33t39 -20.5t46 -7q45 0 78.5 20.5t56 53t34 72.5t11.5 80v315h-87v29h151l228 -418v306q0 35 3 79.5t16 84t40.5 66.5t76.5 27q33 0 58 -21.5t25 -56.5zM619 649q-7 -18 -17.5 -31t-32.5 -13q-12 0 -26.5 5.5t-24.5 11.5q-3 0 -17.5 9t-31.5 9q-5 0 -12 -4
q-4 -5 -6 -10.5t-4 -10.5l-27 11q7 17 17.5 30t31.5 13q14 0 27 -5.5t26 -12t24.5 -12t22.5 -5.5t15.5 8t7.5 17l27 -10v0z" />
    <glyph glyph-name="Ograve" unicode="&#xd2;" horiz-adv-x="578" 
d="M561 292q0 -57 -20 -111t-55.5 -95.5t-85.5 -66.5t-110 -25t-110 25t-85.5 66.5t-55.5 95.5t-20 111t19.5 111t55.5 96t86 67t110 25t110 -25t86 -67t55.5 -96t19.5 -111zM484 287q0 42 -11.5 90.5t-35 89.5t-60 68.5t-87.5 27.5q-48 0 -84.5 -26t-61 -65.5t-36.5 -86.5
t-12 -88q0 -42 11 -90t35 -89.5t60.5 -68.5t87.5 -27q48 0 84.5 26t61 65.5t36.5 86t12 87.5zM336 602l-111 74l16 24l111 -74z" />
    <glyph glyph-name="Oacute" unicode="&#xd3;" horiz-adv-x="578" 
d="M561 292q0 -57 -20 -111t-55.5 -95.5t-85.5 -66.5t-110 -25t-110 25t-85.5 66.5t-55.5 95.5t-20 111t19.5 111t55.5 96t86 67t110 25t110 -25t86 -67t55.5 -96t19.5 -111zM484 287q0 42 -11.5 90.5t-35 89.5t-60 68.5t-87.5 27.5q-48 0 -84.5 -26t-61 -65.5t-36.5 -86.5
t-12 -88q0 -42 11 -90t35 -89.5t60.5 -68.5t87.5 -27q48 0 84.5 26t61 65.5t36.5 86t12 87.5zM241 602l-16 24l111 74l16 -24z" />
    <glyph glyph-name="Ocircumflex" unicode="&#xd4;" horiz-adv-x="578" 
d="M561 292q0 -57 -20 -111t-55.5 -95.5t-85.5 -66.5t-110 -25t-110 25t-85.5 66.5t-55.5 95.5t-20 111t19.5 111t55.5 96t86 67t110 25t110 -25t86 -67t55.5 -96t19.5 -111zM484 287q0 42 -11.5 90.5t-35 89.5t-60 68.5t-87.5 27.5q-48 0 -84.5 -26t-61 -65.5t-36.5 -86.5
t-12 -88q0 -42 11 -90t35 -89.5t60.5 -68.5t87.5 -27q48 0 84.5 26t61 65.5t36.5 86t12 87.5zM196 601l93 80l92 -80h-43l-49 42l-49 -42h-44z" />
    <glyph glyph-name="Otilde" unicode="&#xd5;" horiz-adv-x="578" 
d="M561 292q0 -57 -20 -111t-55.5 -95.5t-85.5 -66.5t-110 -25t-110 25t-85.5 66.5t-55.5 95.5t-20 111t19.5 111t55.5 96t86 67t110 25t110 -25t86 -67t55.5 -96t19.5 -111zM484 287q0 42 -11.5 90.5t-35 89.5t-60 68.5t-87.5 27.5q-48 0 -84.5 -26t-61 -65.5t-36.5 -86.5
t-12 -88q0 -42 11 -90t35 -89.5t60.5 -68.5t87.5 -27q48 0 84.5 26t61 65.5t36.5 86t12 87.5zM388 653q-7 -18 -17.5 -31t-32.5 -13q-12 0 -26.5 5.5t-24.5 11.5q-3 0 -17.5 9t-31.5 9q-5 0 -12 -4q-4 -5 -6 -10.5t-4 -10.5l-27 11q7 17 17.5 30t31.5 13q14 0 27 -5.5
t26 -12t24.5 -12t22.5 -5.5t15.5 8t7.5 17l27 -10v0z" />
    <glyph glyph-name="Odieresis" unicode="&#xd6;" horiz-adv-x="578" 
d="M561 292q0 -57 -20 -111t-55.5 -95.5t-85.5 -66.5t-110 -25t-110 25t-85.5 66.5t-55.5 95.5t-20 111t19.5 111t55.5 96t86 67t110 25t110 -25t86 -67t55.5 -96t19.5 -111zM484 287q0 42 -11.5 90.5t-35 89.5t-60 68.5t-87.5 27.5q-48 0 -84.5 -26t-61 -65.5t-36.5 -86.5
t-12 -88q0 -42 11 -90t35 -89.5t60.5 -68.5t87.5 -27q48 0 84.5 26t61 65.5t36.5 86t12 87.5zM278 626q0 -11 -8 -18.5t-19 -7.5t-18.5 7.5t-7.5 18.5t7.5 18.5t18.5 7.5t19 -7.5t8 -18.5zM354 626q0 -11 -8 -18.5t-19 -7.5t-18.5 7.5t-7.5 18.5t7.5 18.5t18.5 7.5t19 -7.5
t8 -18.5z" />
    <glyph glyph-name="Scaron" unicode="&#x160;" horiz-adv-x="405" 
d="M177 675l35 -30l34 30h45l-79 -68l-79 68h44zM387 139q0 -39 -16 -68.5t-41.5 -49t-59 -29t-67.5 -9.5q-35 0 -68 10t-59 29.5t-42 49t-16 68.5q0 21 6 40.5t18 35t29 25t40 9.5q30 0 50.5 -21t20.5 -50q0 -23 -13.5 -40.5t-37.5 -17.5q-17 0 -33.5 13.5t-16.5 31.5
q0 14 9 22t23 8q11 0 22.5 -6t17.5 -13q0 23 -12.5 33.5t-34.5 10.5q-15 0 -26.5 -8t-19 -20t-11 -26.5t-3.5 -26.5q0 -31 13.5 -55t35 -41t48.5 -26t54 -9q23 0 44 6.5t37.5 20t26 35t9.5 50.5q0 36 -17.5 65.5t-43.5 55t-57 50t-57 52t-43.5 59t-17.5 72.5q0 31 11.5 55
t31.5 39.5t46 23.5t55 8q25 0 51 -9.5t45 -25.5v19h29v-153h-29v91q-14 23 -40 35t-52 12q-36 0 -58 -20.5t-22 -56.5q0 -21 7.5 -38.5t19.5 -32.5t27 -28.5t30 -28.5q24 -24 51.5 -48t51 -50.5t39 -57.5t15.5 -70z" />
    <glyph glyph-name="Ugrave" unicode="&#xd9;" horiz-adv-x="696" 
d="M607 553v-393q0 -70 -54 -115q-29 -25 -65.5 -39.5t-74.5 -14.5q-42 0 -79.5 12.5t-65.5 36t-44 58t-16 79.5q-38 7 -72 25.5t-60.5 45.5t-42 62t-15.5 75q0 43 18 79t47.5 62.5t68 41t79.5 14.5h176v-29h-125v-348q28 4 55.5 17.5t48.5 34.5t34 47.5t13 56.5v12t-2 13
l29 8q1 -6 1.5 -12.5t0.5 -12.5q0 -38 -14.5 -71t-39 -58.5t-57.5 -42t-69 -21.5q0 -17 1 -33.5t5 -32.5q5 -22 19 -38.5t32.5 -28t40.5 -17t42 -5.5q29 0 57 10.5t50 29t35.5 44t13.5 55.5v393h-59v29h159v-29h-71zM208 552q-32 -3 -61.5 -16t-51.5 -34.5t-35 -50
t-13 -62.5t13 -64t35.5 -54t51.5 -40.5t61 -23.5v345zM447 602l-111 74l16 24l111 -74z" />
    <glyph glyph-name="Uacute" unicode="&#xda;" horiz-adv-x="696" 
d="M607 553v-393q0 -70 -54 -115q-29 -25 -65.5 -39.5t-74.5 -14.5q-42 0 -79.5 12.5t-65.5 36t-44 58t-16 79.5q-38 7 -72 25.5t-60.5 45.5t-42 62t-15.5 75q0 43 18 79t47.5 62.5t68 41t79.5 14.5h176v-29h-125v-348q28 4 55.5 17.5t48.5 34.5t34 47.5t13 56.5v12t-2 13
l29 8q1 -6 1.5 -12.5t0.5 -12.5q0 -38 -14.5 -71t-39 -58.5t-57.5 -42t-69 -21.5q0 -17 1 -33.5t5 -32.5q5 -22 19 -38.5t32.5 -28t40.5 -17t42 -5.5q29 0 57 10.5t50 29t35.5 44t13.5 55.5v393h-59v29h159v-29h-71zM208 552q-32 -3 -61.5 -16t-51.5 -34.5t-35 -50
t-13 -62.5t13 -64t35.5 -54t51.5 -40.5t61 -23.5v345zM393 602l-16 24l111 74l16 -24z" />
    <glyph glyph-name="Ucircumflex" unicode="&#xdb;" horiz-adv-x="696" 
d="M607 553v-393q0 -70 -54 -115q-29 -25 -65.5 -39.5t-74.5 -14.5q-42 0 -79.5 12.5t-65.5 36t-44 58t-16 79.5q-38 7 -72 25.5t-60.5 45.5t-42 62t-15.5 75q0 43 18 79t47.5 62.5t68 41t79.5 14.5h176v-29h-125v-348q28 4 55.5 17.5t48.5 34.5t34 47.5t13 56.5v12t-2 13
l29 8q1 -6 1.5 -12.5t0.5 -12.5q0 -38 -14.5 -71t-39 -58.5t-57.5 -42t-69 -21.5q0 -17 1 -33.5t5 -32.5q5 -22 19 -38.5t32.5 -28t40.5 -17t42 -5.5q29 0 57 10.5t50 29t35.5 44t13.5 55.5v393h-59v29h159v-29h-71zM208 552q-32 -3 -61.5 -16t-51.5 -34.5t-35 -50
t-13 -62.5t13 -64t35.5 -54t51.5 -40.5t61 -23.5v345zM325 601l93 80l92 -80h-43l-49 42l-49 -42h-44z" />
    <glyph glyph-name="Udieresis" unicode="&#xdc;" horiz-adv-x="696" 
d="M607 553v-393q0 -70 -54 -115q-29 -25 -65.5 -39.5t-74.5 -14.5q-42 0 -79.5 12.5t-65.5 36t-44 58t-16 79.5q-38 7 -72 25.5t-60.5 45.5t-42 62t-15.5 75q0 43 18 79t47.5 62.5t68 41t79.5 14.5h176v-29h-125v-348q28 4 55.5 17.5t48.5 34.5t34 47.5t13 56.5v12t-2 13
l29 8q1 -6 1.5 -12.5t0.5 -12.5q0 -38 -14.5 -71t-39 -58.5t-57.5 -42t-69 -21.5q0 -17 1 -33.5t5 -32.5q5 -22 19 -38.5t32.5 -28t40.5 -17t42 -5.5q29 0 57 10.5t50 29t35.5 44t13.5 55.5v393h-59v29h159v-29h-71zM208 552q-32 -3 -61.5 -16t-51.5 -34.5t-35 -50
t-13 -62.5t13 -64t35.5 -54t51.5 -40.5t61 -23.5v345zM401 626q0 -11 -8 -18.5t-19 -7.5t-18.5 7.5t-7.5 18.5t7.5 18.5t18.5 7.5t19 -7.5t8 -18.5zM477 626q0 -11 -8 -18.5t-19 -7.5t-18.5 7.5t-7.5 18.5t7.5 18.5t18.5 7.5t19 -7.5t8 -18.5z" />
    <glyph glyph-name="Yacute" unicode="&#xdd;" horiz-adv-x="551" 
d="M128 -158q-20 0 -39.5 4.5t-35 14t-25 25.5t-9.5 40q0 26 14 41.5t41 15.5q20 0 38 -13.5t18 -35.5q0 -14 -6.5 -24.5t-18.5 -10.5q-23 0 -34 11t-18 35q-6 -9 -6 -20q0 -15 7.5 -25t18.5 -17t24.5 -10t25.5 -3q25 0 48 10t44 25.5t39.5 34t34.5 35.5l-194 578h-77v29
h216v-29h-59l170 -509q28 39 56.5 89t51.5 104t37.5 108.5t14.5 103.5q0 28 -5.5 51.5t-18.5 41t-34 27t-52 9.5q-18 0 -34 -7.5t-28 -19.5t-18.5 -28t-6.5 -34q0 -15 4 -28t14 -24l-22 -19q-25 30 -25 69q0 24 9 45.5t25 38t37.5 26.5t45.5 10q37 0 63 -11.5t42.5 -32
t24 -49t7.5 -62.5q0 -70 -25.5 -147.5t-65 -152t-89 -139.5t-97.5 -111q-11 -10 -26.5 -20.5t-33 -19.5t-35.5 -14.5t-33 -5.5zM280 602l-16 24l111 74l16 -24z" />
    <glyph glyph-name="Ydieresis" unicode="&#x178;" horiz-adv-x="551" 
d="M128 -158q-20 0 -39.5 4.5t-35 14t-25 25.5t-9.5 40q0 26 14 41.5t41 15.5q20 0 38 -13.5t18 -35.5q0 -14 -6.5 -24.5t-18.5 -10.5q-23 0 -34 11t-18 35q-6 -9 -6 -20q0 -15 7.5 -25t18.5 -17t24.5 -10t25.5 -3q25 0 48 10t44 25.5t39.5 34t34.5 35.5l-194 578h-77v29
h216v-29h-59l170 -509q28 39 56.5 89t51.5 104t37.5 108.5t14.5 103.5q0 28 -5.5 51.5t-18.5 41t-34 27t-52 9.5q-18 0 -34 -7.5t-28 -19.5t-18.5 -28t-6.5 -34q0 -15 4 -28t14 -24l-22 -19q-25 30 -25 69q0 24 9 45.5t25 38t37.5 26.5t45.5 10q37 0 63 -11.5t42.5 -32
t24 -49t7.5 -62.5q0 -70 -25.5 -147.5t-65 -152t-89 -139.5t-97.5 -111q-11 -10 -26.5 -20.5t-33 -19.5t-35.5 -14.5t-33 -5.5zM265 626q0 -11 -8 -18.5t-19 -7.5t-18.5 7.5t-7.5 18.5t7.5 18.5t18.5 7.5t19 -7.5t8 -18.5zM341 626q0 -11 -8 -18.5t-19 -7.5t-18.5 7.5
t-7.5 18.5t7.5 18.5t18.5 7.5t19 -7.5t8 -18.5z" />
    <glyph glyph-name="Zcaron" unicode="&#x17d;" horiz-adv-x="643" 
d="M296 663l35 -30l34 30h45l-79 -68l-79 68h44zM595 108q0 32 -15 61t-41 48l21 24q28 -21 46.5 -56t18.5 -70q0 -29 -9.5 -53t-26.5 -41.5t-41 -27.5t-53 -10q-27 0 -58 13t-62 31.5t-60.5 38t-54.5 32.5q-12 -23 -25.5 -43.5t-30.5 -36t-39.5 -24.5t-50.5 -9
q-49 0 -71.5 23.5t-22.5 53.5q0 18 8 36t23 32.5t37.5 23.5t51.5 9q33 0 68 -8l218 398h-278v-110h-29v139h403l-247 -456q22 -12 50.5 -31t59 -38t59.5 -32.5t52 -13.5q43 0 71 27t28 70zM194 129q-14 2 -28.5 3.5t-28.5 1.5q-23 0 -40 -7t-28 -17.5t-17 -23.5t-6 -25
q0 -19 12 -33t39 -14q12 0 21 4t19 16.5t23.5 35t33.5 59.5z" />
    <glyph glyph-name="agrave" unicode="&#xe0;" 
d="M286 58q0 -26 -17 -42.5t-43 -16.5q-14 0 -26 7t-20 18q-27 -25 -61 -25q-23 0 -41.5 9t-32 24.5t-20.5 35.5t-7 42q0 21 7 41.5t19.5 37t31 26.5t41.5 10q14 0 27.5 -4.5t24.5 -12.5v11h68v-182q0 -5 5 -5q8 0 12 9t4 17h28zM169 169q-5 11 -16 17.5t-19 6.5
q-12 0 -20 -7.5t-13 -19.5t-7 -26.5t-2 -29.5q0 -14 2 -28t7 -25t13 -18t20 -7q11 0 20 7.5t15 15.5v114zM199 245l-111 74l16 24l111 -74z" />
    <glyph glyph-name="aacute" unicode="&#xe1;" 
d="M286 58q0 -26 -17 -42.5t-43 -16.5q-14 0 -26 7t-20 18q-27 -25 -61 -25q-23 0 -41.5 9t-32 24.5t-20.5 35.5t-7 42q0 21 7 41.5t19.5 37t31 26.5t41.5 10q14 0 27.5 -4.5t24.5 -12.5v11h68v-182q0 -5 5 -5q8 0 12 9t4 17h28zM169 169q-5 11 -16 17.5t-19 6.5
q-12 0 -20 -7.5t-13 -19.5t-7 -26.5t-2 -29.5q0 -14 2 -28t7 -25t13 -18t20 -7q11 0 20 7.5t15 15.5v114zM104 245l-16 24l111 74l16 -24z" />
    <glyph glyph-name="acircumflex" unicode="&#xe2;" 
d="M286 58q0 -26 -17 -42.5t-43 -16.5q-14 0 -26 7t-20 18q-27 -25 -61 -25q-23 0 -41.5 9t-32 24.5t-20.5 35.5t-7 42q0 21 7 41.5t19.5 37t31 26.5t41.5 10q14 0 27.5 -4.5t24.5 -12.5v11h68v-182q0 -5 5 -5q8 0 12 9t4 17h28zM169 169q-5 11 -16 17.5t-19 6.5
q-12 0 -20 -7.5t-13 -19.5t-7 -26.5t-2 -29.5q0 -14 2 -28t7 -25t13 -18t20 -7q11 0 20 7.5t15 15.5v114zM43 244l93 80l92 -80h-43l-49 42l-49 -42h-44z" />
    <glyph glyph-name="atilde" unicode="&#xe3;" 
d="M286 58q0 -26 -17 -42.5t-43 -16.5q-14 0 -26 7t-20 18q-27 -25 -61 -25q-23 0 -41.5 9t-32 24.5t-20.5 35.5t-7 42q0 21 7 41.5t19.5 37t31 26.5t41.5 10q14 0 27.5 -4.5t24.5 -12.5v11h68v-182q0 -5 5 -5q8 0 12 9t4 17h28zM169 169q-5 11 -16 17.5t-19 6.5
q-12 0 -20 -7.5t-13 -19.5t-7 -26.5t-2 -29.5q0 -14 2 -28t7 -25t13 -18t20 -7q11 0 20 7.5t15 15.5v114zM237 296q-7 -18 -17.5 -31t-32.5 -13q-12 0 -26.5 5.5t-24.5 11.5q-3 0 -17.5 9t-31.5 9q-5 0 -12 -4q-4 -5 -6 -10.5t-4 -10.5l-27 11q7 17 17.5 30t31.5 13
q14 0 27 -5.5t26 -12t24.5 -12t22.5 -5.5t15.5 8t7.5 17l27 -10v0z" />
    <glyph glyph-name="adieresis" unicode="&#xe4;" 
d="M286 58q0 -26 -17 -42.5t-43 -16.5q-14 0 -26 7t-20 18q-27 -25 -61 -25q-23 0 -41.5 9t-32 24.5t-20.5 35.5t-7 42q0 21 7 41.5t19.5 37t31 26.5t41.5 10q14 0 27.5 -4.5t24.5 -12.5v11h68v-182q0 -5 5 -5q8 0 12 9t4 17h28zM169 169q-5 11 -16 17.5t-19 6.5
q-12 0 -20 -7.5t-13 -19.5t-7 -26.5t-2 -29.5q0 -14 2 -28t7 -25t13 -18t20 -7q11 0 20 7.5t15 15.5v114zM126 269q0 -11 -8 -18.5t-19 -7.5t-18.5 7.5t-7.5 18.5t7.5 18.5t18.5 7.5t19 -7.5t8 -18.5zM202 269q0 -11 -8 -18.5t-19 -7.5t-18.5 7.5t-7.5 18.5t7.5 18.5
t18.5 7.5t19 -7.5t8 -18.5z" />
    <glyph glyph-name="aring" unicode="&#xe5;" 
d="M169 274q0 -15 -11 -25.5t-26 -10.5t-25.5 10.5t-10.5 25.5t10.5 26t25.5 11t26 -11t11 -26zM149 275q0 16 -17 16t-17 -17q0 -7 5.5 -12t12.5 -5t11.5 5t4.5 13zM286 58q0 -26 -17 -42.5t-43 -16.5q-14 0 -26 7t-20 18q-27 -25 -61 -25q-23 0 -41.5 9t-32 24.5
t-20.5 35.5t-7 42q0 21 7 41.5t19.5 37t31 26.5t41.5 10q14 0 27.5 -4.5t24.5 -12.5v11h68v-182q0 -5 5 -5q8 0 12 9t4 17h28zM169 169q-5 11 -16 17.5t-19 6.5q-12 0 -20 -7.5t-13 -19.5t-7 -26.5t-2 -29.5q0 -14 2 -28t7 -25t13 -18t20 -7q11 0 20 7.5t15 15.5v114z" />
    <glyph glyph-name="ccedilla" unicode="&#xe7;" horiz-adv-x="236" 
d="M218 43q-16 -23 -35 -34.5t-48 -11.5q-52 0 -84.5 32.5t-32.5 87.5q0 26 10.5 46t27.5 34t38 21t42 7q13 0 27 -3t26 -10t19.5 -17t7.5 -23q0 -14 -9 -22t-23 -8q-15 0 -31 13t-16 30q0 3 2 9q-11 -3 -18.5 -12.5t-12 -22t-6.5 -25.5t-2 -23q0 -11 2 -25.5t7 -27.5
t14.5 -22t23.5 -9q17 0 27.5 10t19.5 22l24 -16v0zM162.712 -60.4893q0 -26.5381 -19.4961 -42.9287t-44.4512 -16.3906q-10.918 0 -21.4463 3.90234q-10.5273 3.90234 -19.1055 10.5371q-8.5791 6.63477 -14.0381 16.3906q-5.45801 9.75684 -5.45801 21.4648
q0 15.6094 8.96777 25.3662t24.5654 9.75684q11.6973 0 19.1055 -8.19531q7.40918 -8.19531 7.40918 -19.123q0 -12.4883 -8.96875 -19.5127q-8.96777 -7.02441 -19.8857 -7.02441q10.918 -10.9277 25.7354 -10.9277q17.1562 0 30.8037 9.36621t13.6475 28.0986
q0 21.0742 -15.9873 33.5625q-15.9863 12.4883 -36.2627 12.4883v21.8545q14.8174 0 28.4639 -5.07324q13.6475 -5.07422 23.7861 -14.0498q10.1377 -8.97559 16.376 -21.4639q6.23926 -12.4883 6.23926 -28.0986z" />
    <glyph glyph-name="egrave" unicode="&#xe8;" horiz-adv-x="245" 
d="M227 42q-38 -45 -100 -45q-21 0 -41 8.5t-35 23.5t-24 36t-9 47q0 24 10 45t26.5 36t38 23.5t44.5 8.5q13 0 26.5 -3.5t24 -10.5t17.5 -17.5t7 -25.5q0 -23 -10.5 -38t-27 -25t-35.5 -16.5t-37 -12.5q0 -17 14.5 -33t29.5 -16q19 0 33 9.5t26 23.5zM148 195
q-18 0 -33 -23.5t-15 -66.5q11 3 25.5 8t27 12t21.5 17t9 25t-11 21.5t-24 6.5zM170 245l-111 74l16 24l111 -74z" />
    <glyph glyph-name="eacute" unicode="&#xe9;" horiz-adv-x="245" 
d="M227 42q-38 -45 -100 -45q-21 0 -41 8.5t-35 23.5t-24 36t-9 47q0 24 10 45t26.5 36t38 23.5t44.5 8.5q13 0 26.5 -3.5t24 -10.5t17.5 -17.5t7 -25.5q0 -23 -10.5 -38t-27 -25t-35.5 -16.5t-37 -12.5q0 -17 14.5 -33t29.5 -16q19 0 33 9.5t26 23.5zM148 195
q-18 0 -33 -23.5t-15 -66.5q11 3 25.5 8t27 12t21.5 17t9 25t-11 21.5t-24 6.5zM91 245l-16 24l111 74l16 -24z" />
    <glyph glyph-name="ecircumflex" unicode="&#xea;" horiz-adv-x="245" 
d="M227 42q-38 -45 -100 -45q-21 0 -41 8.5t-35 23.5t-24 36t-9 47q0 24 10 45t26.5 36t38 23.5t44.5 8.5q13 0 26.5 -3.5t24 -10.5t17.5 -17.5t7 -25.5q0 -23 -10.5 -38t-27 -25t-35.5 -16.5t-37 -12.5q0 -17 14.5 -33t29.5 -16q19 0 33 9.5t26 23.5zM148 195
q-18 0 -33 -23.5t-15 -66.5q11 3 25.5 8t27 12t21.5 17t9 25t-11 21.5t-24 6.5zM35 244l93 80l92 -80h-43l-49 42l-49 -42h-44z" />
    <glyph glyph-name="edieresis" unicode="&#xeb;" horiz-adv-x="245" 
d="M227 42q-38 -45 -100 -45q-21 0 -41 8.5t-35 23.5t-24 36t-9 47q0 24 10 45t26.5 36t38 23.5t44.5 8.5q13 0 26.5 -3.5t24 -10.5t17.5 -17.5t7 -25.5q0 -23 -10.5 -38t-27 -25t-35.5 -16.5t-37 -12.5q0 -17 14.5 -33t29.5 -16q19 0 33 9.5t26 23.5zM148 195
q-18 0 -33 -23.5t-15 -66.5q11 3 25.5 8t27 12t21.5 17t9 25t-11 21.5t-24 6.5zM112 269q0 -11 -8 -18.5t-19 -7.5t-18.5 7.5t-7.5 18.5t7.5 18.5t18.5 7.5t19 -7.5t8 -18.5zM188 269q0 -11 -8 -18.5t-19 -7.5t-18.5 7.5t-7.5 18.5t7.5 18.5t18.5 7.5t19 -7.5t8 -18.5z" />
    <glyph glyph-name="igrave" unicode="&#xec;" horiz-adv-x="153" 
d="M135 57q0 -25 -17 -42t-42 -17t-41.5 17t-16.5 42v162h68v-182q0 -6 6 -6q7 0 10.5 10.5t3.5 15.5h29v0zM98 245l-111 74l16 24l111 -74z" />
    <glyph glyph-name="iacute" unicode="&#xed;" horiz-adv-x="153" 
d="M135 57q0 -25 -17 -42t-42 -17t-41.5 17t-16.5 42v162h68v-182q0 -6 6 -6q7 0 10.5 10.5t3.5 15.5h29v0zM30 245l-16 24l111 74l16 -24z" />
    <glyph glyph-name="icircumflex" unicode="&#xee;" horiz-adv-x="153" 
d="M135 57q0 -25 -17 -42t-42 -17t-41.5 17t-16.5 42v162h68v-182q0 -6 6 -6q7 0 10.5 10.5t3.5 15.5h29v0zM-36 244l93 80l92 -80h-43l-49 42l-49 -42h-44z" />
    <glyph glyph-name="idieresis" unicode="&#xef;" horiz-adv-x="153" 
d="M135 57q0 -25 -17 -42t-42 -17t-41.5 17t-16.5 42v162h68v-182q0 -6 6 -6q7 0 10.5 10.5t3.5 15.5h29v0zM43 269q0 -11 -8 -18.5t-19 -7.5t-18.5 7.5t-7.5 18.5t7.5 18.5t18.5 7.5t19 -7.5t8 -18.5zM119 269q0 -11 -8 -18.5t-19 -7.5t-18.5 7.5t-7.5 18.5t7.5 18.5
t18.5 7.5t19 -7.5t8 -18.5z" />
    <glyph glyph-name="ntilde" unicode="&#xf1;" horiz-adv-x="345" 
d="M327 58q0 -25 -17 -42t-42 -17t-42 17t-17 42v117q0 9 -7 13.5t-15 4.5q-5 0 -13.5 -3t-17 -9.5t-14.5 -16.5t-6 -24v-140h-69v186q0 6 -6 6t-10 -9t-4 -17h-29q0 25 17 42t42 17q40 0 54 -36q14 16 35 26t43 10q23 0 37.5 -7t22 -17.5t10 -23t2.5 -23.5q0 -9 -0.5 -25
t-0.5 -33.5t-0.5 -33t-0.5 -23.5q0 -7 5 -7q7 0 10 10.5t4 15.5h29v0zM272 296q-7 -18 -17.5 -31t-32.5 -13q-12 0 -26.5 5.5t-24.5 11.5q-3 0 -17.5 9t-31.5 9q-5 0 -12 -4q-4 -5 -6 -10.5t-4 -10.5l-27 11q7 17 17.5 30t31.5 13q14 0 27 -5.5t26 -12t24.5 -12t22.5 -5.5
t15.5 8t7.5 17l27 -10v0z" />
    <glyph glyph-name="ograve" unicode="&#xf2;" horiz-adv-x="236" 
d="M218 112q0 -24 -7.5 -45t-20.5 -36.5t-31.5 -24.5t-40.5 -9t-40.5 10t-31.5 26.5t-20.5 36.5t-7.5 41q0 22 7 43t20 37.5t31.5 26.5t41.5 10t41.5 -9.5t31.5 -25.5t20 -37t7 -44zM189 111q0 34 -12 57.5t-37 23.5q-22 0 -32.5 -23.5t-10.5 -55.5q0 -30 11 -54.5t34 -24.5
t35 24t12 53zM165 245l-111 74l16 24l111 -74z" />
    <glyph glyph-name="oacute" unicode="&#xf3;" horiz-adv-x="236" 
d="M218 112q0 -24 -7.5 -45t-20.5 -36.5t-31.5 -24.5t-40.5 -9t-40.5 10t-31.5 26.5t-20.5 36.5t-7.5 41q0 22 7 43t20 37.5t31.5 26.5t41.5 10t41.5 -9.5t31.5 -25.5t20 -37t7 -44zM189 111q0 34 -12 57.5t-37 23.5q-22 0 -32.5 -23.5t-10.5 -55.5q0 -30 11 -54.5t34 -24.5
t35 24t12 53zM70 245l-16 24l111 74l16 -24z" />
    <glyph glyph-name="ocircumflex" unicode="&#xf4;" horiz-adv-x="236" 
d="M218 112q0 -24 -7.5 -45t-20.5 -36.5t-31.5 -24.5t-40.5 -9t-40.5 10t-31.5 26.5t-20.5 36.5t-7.5 41q0 22 7 43t20 37.5t31.5 26.5t41.5 10t41.5 -9.5t31.5 -25.5t20 -37t7 -44zM189 111q0 34 -12 57.5t-37 23.5q-22 0 -32.5 -23.5t-10.5 -55.5q0 -30 11 -54.5t34 -24.5
t35 24t12 53zM25 244l93 80l92 -80h-43l-49 42l-49 -42h-44z" />
    <glyph glyph-name="otilde" unicode="&#xf5;" horiz-adv-x="236" 
d="M218 112q0 -24 -7.5 -45t-20.5 -36.5t-31.5 -24.5t-40.5 -9t-40.5 10t-31.5 26.5t-20.5 36.5t-7.5 41q0 22 7 43t20 37.5t31.5 26.5t41.5 10t41.5 -9.5t31.5 -25.5t20 -37t7 -44zM189 111q0 34 -12 57.5t-37 23.5q-22 0 -32.5 -23.5t-10.5 -55.5q0 -30 11 -54.5t34 -24.5
t35 24t12 53zM217 296q-7 -18 -17.5 -31t-32.5 -13q-12 0 -26.5 5.5t-24.5 11.5q-3 0 -17.5 9t-31.5 9q-5 0 -12 -4q-4 -5 -6 -10.5t-4 -10.5l-27 11q7 17 17.5 30t31.5 13q14 0 27 -5.5t26 -12t24.5 -12t22.5 -5.5t15.5 8t7.5 17l27 -10v0z" />
    <glyph glyph-name="odieresis" unicode="&#xf6;" horiz-adv-x="236" 
d="M218 112q0 -24 -7.5 -45t-20.5 -36.5t-31.5 -24.5t-40.5 -9t-40.5 10t-31.5 26.5t-20.5 36.5t-7.5 41q0 22 7 43t20 37.5t31.5 26.5t41.5 10t41.5 -9.5t31.5 -25.5t20 -37t7 -44zM189 111q0 34 -12 57.5t-37 23.5q-22 0 -32.5 -23.5t-10.5 -55.5q0 -30 11 -54.5t34 -24.5
t35 24t12 53zM107 269q0 -11 -8 -18.5t-19 -7.5t-18.5 7.5t-7.5 18.5t7.5 18.5t18.5 7.5t19 -7.5t8 -18.5zM183 269q0 -11 -8 -18.5t-19 -7.5t-18.5 7.5t-7.5 18.5t7.5 18.5t18.5 7.5t19 -7.5t8 -18.5z" />
    <glyph glyph-name="scaron" unicode="&#x161;" horiz-adv-x="209" 
d="M70 303l35 -30l34 30h45l-79 -68l-79 68h44zM191 60q0 -15 -8 -27t-20.5 -19.5t-27.5 -11.5t-28 -4q-16 0 -32 5.5t-28.5 14.5t-20.5 21t-8 25q0 11 6 20t21 9q20 0 33.5 -15t13.5 -34q0 -4 -1 -8.5t-3 -7.5q8 -2 15 -2q8 0 19.5 2.5t11.5 13.5q0 7 -12 16.5t-27 21.5
l-43 33q-15 11 -24.5 24.5t-9.5 27.5q0 15 7 26t18.5 18.5t25.5 11.5t29 4q12 0 25.5 -2.5t25.5 -8.5t20 -16t8 -24t-6.5 -25t-22.5 -11q-20 0 -31.5 16t-11.5 33q0 5 2 8q-3 1 -9 1q-7 0 -16 -3t-9 -11q0 -5 8.5 -12.5t16.5 -13.5l33 -24q9 -6 19.5 -13.5t19.5 -16.5
t15 -19.5t6 -22.5z" />
    <glyph glyph-name="ugrave" unicode="&#xf9;" horiz-adv-x="293" 
d="M275 59q0 -26 -17 -42.5t-43 -16.5q-17 0 -30 9t-21 24q-15 -14 -34 -23t-40 -9q-27 0 -49.5 16t-22.5 45v163h70v-178q0 -7 5.5 -10.5t11.5 -3.5q18 0 32.5 12.5t19.5 26.5v153h70v-186q0 -5 5 -5q7 0 10.5 7.5t3.5 17.5h29v0zM173 245l-111 74l16 24l111 -74z" />
    <glyph glyph-name="uacute" unicode="&#xfa;" horiz-adv-x="293" 
d="M275 59q0 -26 -17 -42.5t-43 -16.5q-17 0 -30 9t-21 24q-15 -14 -34 -23t-40 -9q-27 0 -49.5 16t-22.5 45v163h70v-178q0 -7 5.5 -10.5t11.5 -3.5q18 0 32.5 12.5t19.5 26.5v153h70v-186q0 -5 5 -5q7 0 10.5 7.5t3.5 17.5h29v0zM99 245l-16 24l111 74l16 -24z" />
    <glyph glyph-name="ucircumflex" unicode="&#xfb;" horiz-adv-x="293" 
d="M275 59q0 -26 -17 -42.5t-43 -16.5q-17 0 -30 9t-21 24q-15 -14 -34 -23t-40 -9q-27 0 -49.5 16t-22.5 45v163h70v-178q0 -7 5.5 -10.5t11.5 -3.5q18 0 32.5 12.5t19.5 26.5v153h70v-186q0 -5 5 -5q7 0 10.5 7.5t3.5 17.5h29v0zM32 244l93 80l92 -80h-43l-49 42l-49 -42
h-44z" />
    <glyph glyph-name="udieresis" unicode="&#xfc;" horiz-adv-x="293" 
d="M275 59q0 -26 -17 -42.5t-43 -16.5q-17 0 -30 9t-21 24q-15 -14 -34 -23t-40 -9q-27 0 -49.5 16t-22.5 45v163h70v-178q0 -7 5.5 -10.5t11.5 -3.5q18 0 32.5 12.5t19.5 26.5v153h70v-186q0 -5 5 -5q7 0 10.5 7.5t3.5 17.5h29v0zM106 269q0 -11 -8 -18.5t-19 -7.5
t-18.5 7.5t-7.5 18.5t7.5 18.5t18.5 7.5t19 -7.5t8 -18.5zM182 269q0 -11 -8 -18.5t-19 -7.5t-18.5 7.5t-7.5 18.5t7.5 18.5t18.5 7.5t19 -7.5t8 -18.5z" />
    <glyph glyph-name="yacute" unicode="&#xfd;" horiz-adv-x="240" 
d="M222 -154q0 -29 -20.5 -49t-49.5 -20t-49 20l21 20q6 -5 13 -8t16 -3v218q-14 -11 -31 -17.5t-35 -6.5q-26 0 -47.5 17.5t-21.5 44.5v163h70v-175q0 -8 6.5 -12.5t13.5 -4.5q15 0 28 12t17 20v160h69v-379v0zM89 245l-16 24l111 74l16 -24z" />
    <glyph glyph-name="ydieresis" unicode="&#xff;" horiz-adv-x="240" 
d="M222 -154q0 -29 -20.5 -49t-49.5 -20t-49 20l21 20q6 -5 13 -8t16 -3v218q-14 -11 -31 -17.5t-35 -6.5q-26 0 -47.5 17.5t-21.5 44.5v163h70v-175q0 -8 6.5 -12.5t13.5 -4.5q15 0 28 12t17 20v160h69v-379v0zM113 269q0 -11 -8 -18.5t-19 -7.5t-18.5 7.5t-7.5 18.5
t7.5 18.5t18.5 7.5t19 -7.5t8 -18.5zM189 269q0 -11 -8 -18.5t-19 -7.5t-18.5 7.5t-7.5 18.5t7.5 18.5t18.5 7.5t19 -7.5t8 -18.5z" />
    <glyph glyph-name="zcaron" unicode="&#x17e;" horiz-adv-x="234" 
d="M82 298l35 -30l34 30h45l-79 -68l-79 68h44zM216 62q0 -25 -17.5 -43t-42.5 -18q-11 0 -21.5 3.5l-21 7t-20.5 7t-21 3.5t-16 -4.5t-12 -11.5l-22 18q24 30 48.5 60t49.5 60q-7 0 -12 5l-10.5 10.5t-12.5 10t-18 4.5q-8 0 -15.5 -5t-9.5 -12l-24 7q6 23 17 41.5t40 18.5
q22 0 41.5 -10t40.5 -10q8 0 14 5t11 11l22 -19l-95 -115q11 -2 17.5 -7.5t12 -11t13 -10t19.5 -4.5q17 0 21 17l24 -8v0z" />
    <glyph glyph-name="space" unicode=" " horiz-adv-x="200" 
 />
    <glyph glyph-name="twosuperior" unicode="&#xb2;" horiz-adv-x="165" 
d="M24 386q19 31 38.5 61.5t38.5 61.5q8 13 8 27t-8 23t-22 9q-18 0 -28.5 -18t-10.5 -33l-14 2q0 25 16.5 44.5t42.5 19.5q28 0 42 -18t14 -44q0 -11 -3.5 -21.5t-8.5 -18.5l-52 -81h56v-14h-109z" />
    <glyph glyph-name="threesuperior" unicode="&#xb3;" horiz-adv-x="174" 
d="M150 450q0 -28 -21 -46t-48 -18q-38 0 -57 31l12 7q5 -8 15.5 -15.5t21.5 -7.5q18 0 28 16.5t10 32.5q0 19 -11.5 34.5t-31.5 15.5h-16l52 69h-63v14h93l-51 -68q26 0 46.5 -19t20.5 -46z" />
    <glyph glyph-name="onesuperior" unicode="&#xb9;" horiz-adv-x="155" 
d="M24 384v14h36v169h-24v14h61v-183h34v-14h-107z" />
    <glyph glyph-name="onequarter" unicode="&#xbc;" horiz-adv-x="479" 
d="M24 129v19h48v226h-32v20h82v-246h45v-19h-143zM154 -84h-31l195 478h32zM421 0v-84h-49v84h-137l94 220h53l-84 -201h74v159h49v-159h34v-19h-34z" />
    <glyph glyph-name="onehalf" unicode="&#xbd;" horiz-adv-x="481" 
d="M299 0q26 42 52 82.5t52 82.5q11 17 11 36q0 18 -11.5 31t-29.5 13q-12 0 -21 -7t-16 -17.5t-10.5 -22.5t-3.5 -22l-20 2q0 16 6 32t16.5 28t25.5 19.5t32 7.5q37 0 56 -25t19 -59q0 -14 -4.5 -28t-12.5 -25l-69 -109h75v-19h-147zM24 129v19h48v226h-32v20h82v-246h45
v-19h-143zM154 -84h-31l195 478h32z" />
    <glyph glyph-name="threequarters" unicode="&#xbe;" horiz-adv-x="476" 
d="M193 216q0 -38 -28 -62t-65 -24q-23 0 -43 11t-33 31l16 10q8 -11 22 -21t28 -10q12 0 21.5 6t16 16t10 21t3.5 22q0 26 -15.5 46.5t-42.5 20.5h-21l70 92h-84v20h123l-68 -92q18 0 34.5 -6.5t28.5 -18.5t19.5 -28t7.5 -34zM151 -84h-31l195 478h32zM418 0v-84h-49v84
h-137l94 220h53l-84 -201h74v159h49v-159h34v-19h-34z" />
  </font>
</defs>
</svg>
